999
dxfrw 0.6.3
  0
SECTION
  2
HEADER
  9
$ACADVER
  1
AC1021
  9
$DWGCODEPAGE
  3
ANSI_1252
  9
$INSBASE
 10
0
 20
0
 30
0
  9
$EXTMIN
 10
-0.5
 20
-0.5
 30
0
  9
$EXTMAX
 10
0.5
 20
0.5
 30
0
  9
$LIMMIN
 10
0
 20
0
  9
$LIMMAX
 10
420
 20
297
  9
$ORTHOMODE
 70
    0
  9
$REGENMODE
 70
    1
  9
$FILLMODE
 70
    1
  9
$QTEXTMODE
 70
    0
  9
$MIRRTEXT
 70
    0
  9
$LTSCALE
 40
1
  9
$ATTMODE
 70
    0
  9
$TEXTSIZE
 40
2.5
  9
$TRACEWID
 40
15.68
  9
$TEXTSTYLE
  7
STANDARD
  9
$CLAYER
  8
BoxCenter_R2_Golden_0275
  9
$CELTYPE
  6
BYLAYER
  9
$CECOLOR
 62
  256
  9
$CELTSCALE
 40
1
  9
$DISPSILH
 70
    0
  9
$DIMSCALE
 40
1
  9
$DIMASZ
 40
0.001
  9
$DIMEXO
 40
0.001
  9
$DIMDLI
 40
3.75
  9
$DIMRND
 40
0
  9
$DIMDLE
 40
0
  9
$DIMEXE
 40
0.05
  9
$DIMTP
 40
0
  9
$DIMTM
 40
0
  9
$DIMTXT
 40
0.001
  9
$DIMCEN
 40
2.5
  9
$DIMTSZ
 40
0
  9
$DIMTOL
 70
    0
  9
$DIMLIM
 70
    0
  9
$DIMTIH
 70
    0
  9
$DIMTOH
 70
    0
  9
$DIMSE1
 70
    0
  9
$DIMSE2
 70
    0
  9
$DIMTAD
 70
    1
  9
$DIMZIN
 70
    8
  9
$DIMBLK
  1

  9
$DIMASO
 70
    1
  9
$DIMSHO
 70
    1
  9
$DIMPOST
  1

  9
$DIMAPOST
  1

  9
$DIMALT
 70
    0
  9
$DIMALTD
 70
    3
  9
$DIMALTF
 40
0.03937
  9
$DIMLFAC
 40
1
  9
$DIMTOFL
 70
    1
  9
$DIMTVP
 40
0
  9
$DIMTIX
 70
    0
  9
$DIMSOXD
 70
    0
  9
$DIMSAH
 70
    0
  9
$DIMBLK1
  1

  9
$DIMBLK2
  1

  9
$DIMSTYLE
  2
STANDARD
  9
$DIMCLRD
 70
    0
  9
$DIMCLRE
 70
    0
  9
$DIMCLRT
 70
    0
  9
$DIMTFAC
 40
1
  9
$DIMGAP
 40
0.001
  9
$DIMJUST
 70
    0
  9
$DIMSD1
 70
    0
  9
$DIMSD2
 70
    0
  9
$DIMTOLJ
 70
    0
  9
$DIMTZIN
 70
    8
  9
$DIMALTZ
 70
    0
  9
$DIMALTTZ
 70
    0
  9
$DIMUPT
 70
    0
  9
$DIMDEC
 70
    3
  9
$DIMTDEC
 70
    2
  9
$DIMALTU
 70
    2
  9
$DIMALTTD
 70
    3
  9
$DIMTXSTY
  7
standard
  9
$DIMAUNIT
 70
    0
  9
$DIMADEC
 70
    0
  9
$DIMALTRND
 40
0
  9
$DIMAZIN
 70
    0
  9
$DIMDSEP
 70
    0
  9
$DIMATFIT
 70
    3
  9
$DIMFRAC
 70
    0
  9
$DIMLDRBLK
  1
STANDARD
  9
$DIMLUNIT
 70
    2
  9
$DIMLWD
 70
   -2
  9
$DIMLWE
 70
   -2
  9
$DIMTMOVE
 70
    0
  9
$DIMFXL
 40
1
  9
$DIMFXLON
 70
    0
  9
$DIMJOGANG
 40
0.7854
  9
$DIMTFILL
 70
    0
  9
$DIMTFILLCLR
 70
    0
  9
$DIMARCSYM
 70
    0
  9
$DIMLTYPE
  6

  9
$DIMLTEX1
  6

  9
$DIMLTEX2
  6

  9
$LUNITS
 70
    2
  9
$LUPREC
 70
    4
  9
$SKETCHINC
 40
1
  9
$FILLETRAD
 40
0
  9
$AUNITS
 70
    0
  9
$AUPREC
 70
    2
  9
$MENU
  1
.
  9
$ELEVATION
 40
0
  9
$PELEVATION
 40
0
  9
$THICKNESS
 40
0
  9
$LIMCHECK
 70
    0
  9
$CHAMFERA
 40
0
  9
$CHAMFERB
 40
0
  9
$CHAMFERC
 40
0
  9
$CHAMFERD
 40
0
  9
$SKPOLY
 70
    0
  9
$USRTIMER
 70
    1
  9
$ANGBASE
 50
0
  9
$ANGDIR
 70
    0
  9
$PDMODE
 70
   34
  9
$PDSIZE
 40
0
  9
$PLINEWID
 40
0
  9
$SPLFRAME
 70
    0
  9
$SPLINETYPE
 70
    2
  9
$SPLINESEGS
 70
    8
  9
$HANDSEED
  5
20000
  9
$SURFTAB1
 70
    6
  9
$SURFTAB2
 70
    6
  9
$SURFTYPE
 70
    6
  9
$SURFU
 70
    6
  9
$SURFV
 70
    6
  9
$UCSBASE
  2

  9
$UCSNAME
  2

  9
$UCSORG
 10
0
 20
0
 30
0
  9
$UCSXDIR
 10
1
 20
0
 30
0
  9
$UCSYDIR
 10
0
 20
1
 30
0
  9
$UCSORTHOREF
  2

  9
$UCSORTHOVIEW
 70
    0
  9
$UCSORGTOP
 10
0
 20
0
 30
0
  9
$UCSORGBOTTOM
 10
0
 20
0
 30
0
  9
$UCSORGLEFT
 10
0
 20
0
 30
0
  9
$UCSORGRIGHT
 10
0
 20
0
 30
0
  9
$UCSORGFRONT
 10
0
 20
0
 30
0
  9
$UCSORGBACK
 10
0
 20
0
 30
0
  9
$PUCSBASE
  2

  9
$PUCSNAME
  2

  9
$PUCSORG
 10
0
 20
0
 30
0
  9
$PUCSXDIR
 10
1
 20
0
 30
0
  9
$PUCSYDIR
 10
0
 20
1
 30
0
  9
$PUCSORTHOREF
  2

  9
$PUCSORTHOVIEW
 70
    0
  9
$PUCSORGTOP
 10
0
 20
0
 30
0
  9
$PUCSORGBOTTOM
 10
0
 20
0
 30
0
  9
$PUCSORGLEFT
 10
0
 20
0
 30
0
  9
$PUCSORGRIGHT
 10
0
 20
0
 30
0
  9
$PUCSORGFRONT
 10
0
 20
0
 30
0
  9
$PUCSORGBACK
 10
0
 20
0
 30
0
  9
$USERI1
 70
    0
  9
$USERI2
 70
    0
  9
$USERI3
 70
    0
  9
$USERI4
 70
    0
  9
$USERI5
 70
    0
  9
$USERR1
 40
0
  9
$USERR2
 40
0
  9
$USERR3
 40
0
  9
$USERR4
 40
0
  9
$USERR5
 40
0
  9
$WORLDVIEW
 70
    1
  9
$SHADEDGE
 70
    3
  9
$SHADEDIF
 70
   70
  9
$TILEMODE
 70
    1
  9
$MAXACTVP
 70
   64
  9
$PINSBASE
 10
4.186545050951332
 20
5.845133094712005
 30
0
  9
$PLIMCHECK
 70
    0
  9
$PEXTMIN
 10
0
 20
0
 30
0
  9
$PEXTMAX
 10
0
 20
0
 30
0
  9
$GRIDMODE
 70
    1
  9
$SNAPSTYLE
 70
    0
  9
$GRIDUNIT
 10
0
 20
0
  9
$PLIMMIN
 10
0
 20
0
  9
$PLIMMAX
 10
8.5
 20
11
  9
$UNITMODE
 70
    0
  9
$VISRETAIN
 70
    1
  9
$PLINEGEN
 70
    0
  9
$PSLTSCALE
 70
    1
  9
$TREEDEPTH
 70
 3020
  9
$CMLSTYLE
  2
Standard
  9
$CMLJUST
 70
    0
  9
$CMLSCALE
 40
20
  9
$PROXYGRAPHICS
 70
    1
  9
$MEASUREMENT
 70
    1
  9
$CELWEIGHT
370
   -1
  9
$ENDCAPS
280
    0
  9
$JOINSTYLE
280
    0
  9
$LWDISPLAY
290
    0
  9
$INSUNITS
 70
    1
  9
$HYPERLINKBASE
  1

  9
$STYLESHEET
  1

  9
$XEDIT
290
    1
  9
$CEPSNTYPE
380
    0
  9
$PSTYLEMODE
290
    1
  9
$EXTNAMES
290
    1
  9
$PSVPSCALE
 40
1
  9
$OLESTARTUP
290
    0
  9
$SORTENTS
280
  127
  9
$INDEXCTL
280
    0
  9
$HIDETEXT
280
    1
  9
$XCLIPFRAME
290
    0
  9
$HALOGAP
280
    0
  9
$OBSCOLOR
 70
  257
  9
$OBSLTYPE
280
    0
  9
$INTERSECTIONDISPLAY
280
    0
  9
$INTERSECTIONCOLOR
 70
  257
  9
$DIMASSOC
280
    1
  9
$PROJECTNAME
  1

  9
$CAMERADISPLAY
290
    0
  9
$LENSLENGTH
 40
50
  9
$CAMERAHEIGHT
 40
0
  9
$STEPSPERSEC
 40
2
  9
$STEPSIZE
 40
50
  9
$3DDWFPREC
 40
2
  9
$PSOLWIDTH
 40
5
  9
$PSOLHEIGHT
 40
80
  9
$LOFTANG1
 40
1.570796326794897
  9
$LOFTANG2
 40
1.570796326794897
  9
$LOFTMAG1
 40
0
  9
$LOFTMAG2
 40
0
  9
$LOFTPARAM
 70
    7
  9
$LOFTNORMALS
280
    1
  9
$LATITUDE
 40
1
  9
$LONGITUDE
 40
1
  9
$NORTHDIRECTION
 40
0
  9
$TIMEZONE
 70
-8000
  9
$LIGHTGLYPHDISPLAY
280
    1
  9
$TILEMODELIGHTSYNCH
280
    1
  9
$SOLIDHIST
280
    1
  9
$SHOWHIST
280
    1
  9
$DWFFRAME
280
    2
  9
$DGNFRAME
280
    0
  9
$REALWORLDSCALE
290
    1
  9
$INTERFERECOLOR
 62
    1
  9
$CSHADOW
280
    0
  9
$SHADOWPLANELOCATION
 40
0
  0
ENDSEC
  0
SECTION
  2
CLASSES
  0
ENDSEC
  0
SECTION
  2
TABLES
  0
TABLE
  2
VPORT
  5
8
330
0
100
AcDbSymbolTable
 70
    1
  0
VPORT
  5
31
330
2
100
AcDbSymbolTableRecord
100
AcDbViewportTableRecord
  2
*ACTIVE
 70
    0
 10
0
 20
0
 11
1
 21
1
 12
0.0418561080741851
 22
0.0154415101408818
 13
0
 23
0
 14
10
 24
10
 15
10
 25
10
 16
0
 26
0
 36
1
 17
0
 27
0
 37
0
 40
0.06074791901577675
 41
1.945996275605214
 42
50
 43
0
 44
0
 50
0
 51
0
 71
    0
 72
  100
 73
    1
 74
    3
 75
    0
 76
    1
 77
    0
 78
    0
281
    0
 65
    1
110
0
120
0
130
0
111
1
121
0
131
0
112
0
122
1
132
0
 79
    0
146
0
348
10020
 60
    7
 61
    5
292
1
282
    1
141
0
142
0
 63
  250
421
3358443
  0
ENDTAB
  0
TABLE
  2
LTYPE
  5
5
330
0
100
AcDbSymbolTable
 70
    4
  0
LTYPE
  5
14
330
5
100
AcDbSymbolTableRecord
100
AcDbLinetypeTableRecord
  2
ByBlock
 70
    0
  3

 72
   65
 73
    0
 40
0
  0
LTYPE
  5
15
330
5
100
AcDbSymbolTableRecord
100
AcDbLinetypeTableRecord
  2
ByLayer
 70
    0
  3

 72
   65
 73
    0
 40
0
  0
LTYPE
  5
16
330
5
100
AcDbSymbolTableRecord
100
AcDbLinetypeTableRecord
  2
Continuous
 70
    0
  3
Solid line
 72
   65
 73
    0
 40
0
  0
LTYPE
  5
32
330
5
100
AcDbSymbolTableRecord
100
AcDbLinetypeTableRecord
  2
DOT
 70
    0
  3
Dot . . . . . . . . . . . . . . . . . . . . . .
 72
   65
 73
    2
 40
6.35
 49
0
 74
    0
 49
-6.35
 74
    0
  0
LTYPE
  5
33
330
5
100
AcDbSymbolTableRecord
100
AcDbLinetypeTableRecord
  2
DOTTINY
 70
    0
  3
Dot (.15x) .....................................
 72
   65
 73
    2
 40
0.9525
 49
0
 74
    0
 49
-0.9525
 74
    0
  0
LTYPE
  5
34
330
5
100
AcDbSymbolTableRecord
100
AcDbLinetypeTableRecord
  2
DOT2
 70
    0
  3
Dot (.5x) .....................................
 72
   65
 73
    2
 40
3.175
 49
0
 74
    0
 49
-3.175
 74
    0
  0
LTYPE
  5
35
330
5
100
AcDbSymbolTableRecord
100
AcDbLinetypeTableRecord
  2
DOTX2
 70
    0
  3
Dot (2x) .  .  .  .  .  .  .  .  .  .  .  .  .
 72
   65
 73
    2
 40
12.7
 49
0
 74
    0
 49
-12.7
 74
    0
  0
LTYPE
  5
36
330
5
100
AcDbSymbolTableRecord
100
AcDbLinetypeTableRecord
  2
DASHED
 70
    0
  3
Dashed _ _ _ _ _ _ _ _ _ _ _ _ _ _ _ _ _
 72
   65
 73
    2
 40
19.05
 49
12.7
 74
    0
 49
-6.35
 74
    0
  0
LTYPE
  5
37
330
5
100
AcDbSymbolTableRecord
100
AcDbLinetypeTableRecord
  2
DASHEDTINY
 70
    0
  3
Dashed (.15x) _ _ _ _ _ _ _ _ _ _ _ _ _ _ _ _ _
 72
   65
 73
    2
 40
2.8575
 49
1.905
 74
    0
 49
-0.9525
 74
    0
  0
LTYPE
  5
38
330
5
100
AcDbSymbolTableRecord
100
AcDbLinetypeTableRecord
  2
DASHED2
 70
    0
  3
Dashed (.5x) _ _ _ _ _ _ _ _ _ _ _ _ _ _ _ _ _
 72
   65
 73
    2
 40
9.524999999999999
 49
6.35
 74
    0
 49
-3.175
 74
    0
  0
LTYPE
  5
39
330
5
100
AcDbSymbolTableRecord
100
AcDbLinetypeTableRecord
  2
DASHEDX2
 70
    0
  3
Dashed (2x) ____  ____  ____  ____  ____  ___
 72
   65
 73
    2
 40
38.09999999999999
 49
25.4
 74
    0
 49
-12.7
 74
    0
  0
LTYPE
  5
3A
330
5
100
AcDbSymbolTableRecord
100
AcDbLinetypeTableRecord
  2
DASHDOT
 70
    0
  3
Dash dot __ . __ . __ . __ . __ . __ . __ . __
 72
   65
 73
    4
 40
25.4
 49
12.7
 74
    0
 49
-6.35
 74
    0
 49
0
 74
    0
 49
-6.35
 74
    0
  0
LTYPE
  5
3B
330
5
100
AcDbSymbolTableRecord
100
AcDbLinetypeTableRecord
  2
DASHDOTTINY
 70
    0
  3
Dash dot (.15x) _._._._._._._._._._._._._._._.
 72
   65
 73
    4
 40
3.81
 49
1.905
 74
    0
 49
-0.9525
 74
    0
 49
0
 74
    0
 49
-0.9525
 74
    0
  0
LTYPE
  5
3C
330
5
100
AcDbSymbolTableRecord
100
AcDbLinetypeTableRecord
  2
DASHDOT2
 70
    0
  3
Dash dot (.5x) _._._._._._._._._._._._._._._.
 72
   65
 73
    4
 40
12.7
 49
6.35
 74
    0
 49
-3.175
 74
    0
 49
0
 74
    0
 49
-3.175
 74
    0
  0
LTYPE
  5
3D
330
5
100
AcDbSymbolTableRecord
100
AcDbLinetypeTableRecord
  2
DASHDOTX2
 70
    0
  3
Dash dot (2x) ____  .  ____  .  ____  .  ___
 72
   65
 73
    4
 40
50.8
 49
25.4
 74
    0
 49
-12.7
 74
    0
 49
0
 74
    0
 49
-12.7
 74
    0
  0
LTYPE
  5
3E
330
5
100
AcDbSymbolTableRecord
100
AcDbLinetypeTableRecord
  2
DIVIDE
 70
    0
  3
Divide ____ . . ____ . . ____ . . ____ . . ____
 72
   65
 73
    6
 40
31.75
 49
12.7
 74
    0
 49
-6.35
 74
    0
 49
0
 74
    0
 49
-6.35
 74
    0
 49
0
 74
    0
 49
-6.35
 74
    0
  0
LTYPE
  5
3F
330
5
100
AcDbSymbolTableRecord
100
AcDbLinetypeTableRecord
  2
DIVIDETINY
 70
    0
  3
Divide (.15x) __..__..__..__..__..__..__..__.._
 72
   65
 73
    6
 40
4.7625
 49
1.905
 74
    0
 49
-0.9525
 74
    0
 49
0
 74
    0
 49
-0.9525
 74
    0
 49
0
 74
    0
 49
-0.9525
 74
    0
  0
LTYPE
  5
40
330
5
100
AcDbSymbolTableRecord
100
AcDbLinetypeTableRecord
  2
DIVIDE2
 70
    0
  3
Divide (.5x) __..__..__..__..__..__..__..__.._
 72
   65
 73
    6
 40
15.875
 49
6.35
 74
    0
 49
-3.175
 74
    0
 49
0
 74
    0
 49
-3.175
 74
    0
 49
0
 74
    0
 49
-3.175
 74
    0
  0
LTYPE
  5
41
330
5
100
AcDbSymbolTableRecord
100
AcDbLinetypeTableRecord
  2
DIVIDEX2
 70
    0
  3
Divide (2x) ________  .  .  ________  .  .  _
 72
   65
 73
    6
 40
63.5
 49
25.4
 74
    0
 49
-12.7
 74
    0
 49
0
 74
    0
 49
-12.7
 74
    0
 49
0
 74
    0
 49
-12.7
 74
    0
  0
LTYPE
  5
42
330
5
100
AcDbSymbolTableRecord
100
AcDbLinetypeTableRecord
  2
BORDER
 70
    0
  3
Border __ __ . __ __ . __ __ . __ __ . __ __ .
 72
   65
 73
    6
 40
44.45
 49
12.7
 74
    0
 49
-6.35
 74
    0
 49
12.7
 74
    0
 49
-6.35
 74
    0
 49
0
 74
    0
 49
-6.35
 74
    0
  0
LTYPE
  5
43
330
5
100
AcDbSymbolTableRecord
100
AcDbLinetypeTableRecord
  2
BORDERTINY
 70
    0
  3
Border (.15x) __.__.__.__.__.__.__.__.__.__.__.
 72
   65
 73
    6
 40
6.6675
 49
1.905
 74
    0
 49
-0.9525
 74
    0
 49
1.905
 74
    0
 49
-0.9525
 74
    0
 49
0
 74
    0
 49
-0.9525
 74
    0
  0
LTYPE
  5
44
330
5
100
AcDbSymbolTableRecord
100
AcDbLinetypeTableRecord
  2
BORDER2
 70
    0
  3
Border (.5x) __.__.__.__.__.__.__.__.__.__.__.
 72
   65
 73
    6
 40
22.225
 49
6.35
 74
    0
 49
-3.175
 74
    0
 49
6.35
 74
    0
 49
-3.175
 74
    0
 49
0
 74
    0
 49
-3.175
 74
    0
  0
LTYPE
  5
45
330
5
100
AcDbSymbolTableRecord
100
AcDbLinetypeTableRecord
  2
BORDERX2
 70
    0
  3
Border (2x) ____  ____  .  ____  ____  .  ___
 72
   65
 73
    6
 40
88.89999999999999
 49
25.4
 74
    0
 49
-12.7
 74
    0
 49
25.4
 74
    0
 49
-12.7
 74
    0
 49
0
 74
    0
 49
-12.7
 74
    0
  0
LTYPE
  5
46
330
5
100
AcDbSymbolTableRecord
100
AcDbLinetypeTableRecord
  2
CENTER
 70
    0
  3
Center ____ _ ____ _ ____ _ ____ _ ____ _ ____
 72
   65
 73
    4
 40
50.8
 49
31.75
 74
    0
 49
-6.35
 74
    0
 49
6.35
 74
    0
 49
-6.35
 74
    0
  0
LTYPE
  5
47
330
5
100
AcDbSymbolTableRecord
100
AcDbLinetypeTableRecord
  2
CENTERTINY
 70
    0
  3
Center (.15x) ___ _ ___ _ ___ _ ___ _ ___ _ ___
 72
   65
 73
    4
 40
7.62
 49
4.7625
 74
    0
 49
-0.9525
 74
    0
 49
0.9525
 74
    0
 49
-0.9525
 74
    0
  0
LTYPE
  5
48
330
5
100
AcDbSymbolTableRecord
100
AcDbLinetypeTableRecord
  2
CENTER2
 70
    0
  3
Center (.5x) ___ _ ___ _ ___ _ ___ _ ___ _ ___
 72
   65
 73
    4
 40
28.575
 49
19.05
 74
    0
 49
-3.175
 74
    0
 49
3.175
 74
    0
 49
-3.175
 74
    0
  0
LTYPE
  5
49
330
5
100
AcDbSymbolTableRecord
100
AcDbLinetypeTableRecord
  2
CENTERX2
 70
    0
  3
Center (2x) ________  __  ________  __  _____
 72
   65
 73
    4
 40
101.6
 49
63.5
 74
    0
 49
-12.7
 74
    0
 49
12.7
 74
    0
 49
-12.7
 74
    0
  0
ENDTAB
  0
TABLE
  2
LAYER
  5
2
330
0
100
AcDbSymbolTable
 70
    1
  0
LAYER
  5
10
330
2
100
AcDbSymbolTableRecord
100
AcDbLayerTableRecord
  2
0
 70
    4
 62
    7
  6
CONTINUOUS
370
    0
390
F
  0
LAYER
  5
4A
330
2
100
AcDbSymbolTableRecord
100
AcDbLayerTableRecord
  2
BoxCenter_R2_030
 70
    4
 62
    1
  6
CONTINUOUS
370
    0
390
F
  0
LAYER
  5
4B
330
2
100
AcDbSymbolTableRecord
100
AcDbLayerTableRecord
  2
BoxCenter_R2_Golden_0275
 70
    4
 62
    3
  6
CONTINUOUS
370
    0
390
F
  0
LAYER
  5
4C
330
2
100
AcDbSymbolTableRecord
100
AcDbLayerTableRecord
  2
FullDepth
 70
    4
 62
    6
  6
CONTINUOUS
370
    0
390
F
  0
LAYER
  5
4D
330
2
100
AcDbSymbolTableRecord
100
AcDbLayerTableRecord
  2
Golden_R2_034
 70
    4
 62
    2
  6
CONTINUOUS
370
    0
390
F
  0
LAYER
  5
4E
330
2
100
AcDbSymbolTableRecord
100
AcDbLayerTableRecord
  2
Recommended
 70
    4
 62
    4
  6
CONTINUOUS
370
    0
390
F
  0
ENDTAB
  0
TABLE
  2
STYLE
  5
3
330
0
100
AcDbSymbolTable
 70
    3
  0
STYLE
  5
4F
330
2
100
AcDbSymbolTableRecord
100
AcDbTextStyleTableRecord
  2
Standard
 70
    0
 40
0
 41
1
 50
0
 71
    0
 42
1
  3
txt
  4

  0
ENDTAB
  0
TABLE
  2
VIEW
  5
6
330
0
100
AcDbSymbolTable
 70
    0
  0
ENDTAB
  0
TABLE
  2
UCS
  5
7
330
0
100
AcDbSymbolTable
 70
    0
  0
ENDTAB
  0
TABLE
  2
APPID
  5
9
330
0
100
AcDbSymbolTable
 70
    1
  0
APPID
  5
12
330
9
100
AcDbSymbolTableRecord
100
AcDbRegAppTableRecord
  2
ACAD
 70
    0
  0
APPID
  5
50
330
9
100
AcDbSymbolTableRecord
100
AcDbRegAppTableRecord
  2
LibreCad
 70
    0
  0
ENDTAB
  0
TABLE
  2
DIMSTYLE
  5
A
330
0
100
AcDbSymbolTable
 70
    1
100
AcDbDimStyleTable
 71
    1
  0
DIMSTYLE
105
51
330
A
100
AcDbSymbolTableRecord
100
AcDbDimStyleTableRecord
  2
Standard
 70
    0
 40
1
 41
0.001
 42
0.001
 43
0.38
 44
0.05
 45
0
 46
0
 47
0
 48
0
 49
1
140
0.001
141
0.09
142
0
143
25.4
144
1
145
0
146
1
147
0.001
148
0
 71
    0
 72
    0
 73
    0
 74
    1
 75
    0
 76
    0
 77
    0
 78
    8
 79
    0
170
    0
171
    2
172
    0
173
    0
174
    0
175
    0
176
    0
177
    0
178
    0
179
    0
271
    3
272
    4
273
    2
274
    2
275
    0
276
    0
277
    2
278
    0
279
    0
280
    0
281
    0
282
    0
283
    1
284
    0
285
    0
286
    0
288
    0
289
    3
340
standard
341

371
   -2
372
   -2
  0
ENDTAB
  0
TABLE
  2
BLOCK_RECORD
  5
1
330
0
100
AcDbSymbolTable
 70
    2
  0
BLOCK_RECORD
  5
1F
330
1
100
AcDbSymbolTableRecord
100
AcDbBlockTableRecord
  2
*Model_Space
 70
    0
280
    1
281
    0
  0
BLOCK_RECORD
  5
1E
330
1
100
AcDbSymbolTableRecord
100
AcDbBlockTableRecord
  2
*Paper_Space
 70
    0
280
    1
281
    0
  0
BLOCK_RECORD
  5
52
330
1
100
AcDbSymbolTableRecord
100
AcDbBlockTableRecord
  2
*D3
 70
    0
280
    1
281
    0
  0
BLOCK_RECORD
  5
55
330
1
100
AcDbSymbolTableRecord
100
AcDbBlockTableRecord
  2
*D5
 70
    0
280
    1
281
    0
  0
BLOCK_RECORD
  5
58
330
1
100
AcDbSymbolTableRecord
100
AcDbBlockTableRecord
  2
*D2
 70
    0
280
    1
281
    0
  0
BLOCK_RECORD
  5
5B
330
1
100
AcDbSymbolTableRecord
100
AcDbBlockTableRecord
  2
*D1
 70
    0
280
    1
281
    0
  0
BLOCK_RECORD
  5
5E
330
1
100
AcDbSymbolTableRecord
100
AcDbBlockTableRecord
  2
*D4
 70
    0
280
    1
281
    0
  0
BLOCK_RECORD
  5
61
330
1
100
AcDbSymbolTableRecord
100
AcDbBlockTableRecord
  2
*D7
 70
    0
280
    1
281
    0
  0
BLOCK_RECORD
  5
64
330
1
100
AcDbSymbolTableRecord
100
AcDbBlockTableRecord
  2
*D6
 70
    0
280
    1
281
    0
  0
ENDTAB
  0
ENDSEC
  0
SECTION
  2
BLOCKS
  0
BLOCK
  5
20
330
1F
100
AcDbEntity
  8
0
100
AcDbBlockBegin
  2
*Model_Space
 70
    0
 10
0
 20
0
 30
0
  3
*Model_Space
  1

  0
ENDBLK
  5
21
330
1F
100
AcDbEntity
  8
0
100
AcDbBlockEnd
  0
BLOCK
  5
1C
330
1B
100
AcDbEntity
  8
0
100
AcDbBlockBegin
  2
*Paper_Space
 70
    0
 10
0
 20
0
 30
0
  3
*Paper_Space
  1

  0
ENDBLK
  5
1D
330
1F
100
AcDbEntity
  8
0
100
AcDbBlockEnd
  0
BLOCK
  5
53
330
52
100
AcDbEntity
  8
0
100
AcDbBlockBegin
  2
*D3
 70
    1
 10
0
 20
0
  3
*D3
  1

  0
SOLID
  5
67
100
AcDbEntity
  8
FullDepth
  6
ByBlock
 62
    0
370
   -2
100
AcDbTrace
 10
0.01949999999999997
 20
-0.02299999999999998
 30
0
 11
0.01988557421464942
 21
-0.02206241832803482
 31
0
 12
0.02016858633798217
 22
-0.02223795067399078
 32
0
 13
0.02016858633798217
 23
-0.02223795067399078
 33
0
  0
LINE
  5
68
100
AcDbEntity
  8
FullDepth
  6
ByBlock
 62
    0
370
   -2
100
AcDbLine
 10
0.04535583273445744
 20
0.01868755384008349
 11
0.01949999999999997
 21
-0.02299999999999999
  0
MTEXT
  5
69
100
AcDbEntity
  8
FullDepth
  6
CONTINUOUS
 62
    0
370
   -2
100
AcDbMText
 10
0.03115319311874793
 20
-0.001365602665484511
 30
0
 40
0.001
 41
0.003222222222222223
 71
    5
 72
    1
  1
0.049
  7
standard
210
0
220
0
230
1
 50
58.1916077058539
 73
    2
 44
1
  0
ENDBLK
  5
54
330
52
100
AcDbEntity
  8
0
100
AcDbBlockEnd
  0
BLOCK
  5
56
330
55
100
AcDbEntity
  8
0
100
AcDbBlockBegin
  2
*D5
 70
    1
 10
0
 20
0
  3
*D5
  1

  0
SOLID
  5
6A
100
AcDbEntity
  8
BoxCenter_R2_030
  6
ByBlock
 62
    0
370
   -2
100
AcDbTrace
 10
0.01949999999999999
 20
-0.02183284313301437
 30
0
 11
0.01966794385050039
 21
-0.0208330822967707
 31
0
 12
0.01998284752295555
 22
-0.02094144808244296
 32
0
 13
0.01998284752295555
 23
-0.02094144808244296
 33
0
  0
LINE
  5
6B
100
AcDbEntity
  8
BoxCenter_R2_030
  6
ByBlock
 62
    0
370
   -2
100
AcDbLine
 10
0.02924999999999999
 20
0.006499999999999998
 11
0.01949999999999999
 21
-0.02183284313301436
  0
MTEXT
  5
6C
100
AcDbEntity
  8
BoxCenter_R2_030
  6
CONTINUOUS
 62
    0
370
   -2
100
AcDbMText
 10
0.02295663308488869
 20
-0.007178328036415207
 30
0
 40
0.001
 41
0.002333333333333396
 71
    5
 72
    1
  1
0.03
  7
standard
210
0
220
0
230
1
 50
71.01045073358981
 73
    2
 44
1
  0
ENDBLK
  5
57
330
55
100
AcDbEntity
  8
0
100
AcDbBlockEnd
  0
BLOCK
  5
59
330
58
100
AcDbEntity
  8
0
100
AcDbBlockBegin
  2
*D2
 70
    1
 10
0
 20
0
  3
*D2
  1

  0
SOLID
  5
6D
100
AcDbEntity
  8
Recommended
  6
ByBlock
 62
    0
370
   -2
100
AcDbTrace
 10
0.0195
 20
-0.01417022083031741
 30
0
 11
0.01941074610153382
 21
-0.01316038886002923
 31
0
 12
0.01974279104254815
 22
-0.01318595492302106
 32
0
 13
0.01974279104254815
 23
-0.01318595492302106
 33
0
  0
LINE
  5
6E
100
AcDbEntity
  8
Recommended
  6
ByBlock
 62
    0
370
   -2
100
AcDbLine
 10
0.02126567715694261
 20
0.008761904761904762
 11
0.0195
 21
-0.01417022083031741
  0
MTEXT
  5
6F
100
AcDbEntity
  8
Recommended
  6
CONTINUOUS
 62
    0
370
   -2
100
AcDbMText
 10
0.0188872651702829
 20
-0.002589005176144849
 30
0
 40
0.001
 41
0.003111111111111173
 71
    5
 72
    1
  1
0.023
  7
standard
210
0
220
0
230
1
 50
85.59715294641757
 73
    2
 44
1
  0
ENDBLK
  5
5A
330
58
100
AcDbEntity
  8
0
100
AcDbBlockEnd
  0
BLOCK
  5
5C
330
5B
100
AcDbEntity
  8
0
100
AcDbBlockBegin
  2
*D1
 70
    1
 10
0
 20
0
  3
*D1
  1

  0
SOLID
  5
70
100
AcDbEntity
  8
Recommended
  6
ByBlock
 62
    0
370
   -2
100
AcDbTrace
 10
-0.0194164878389476
 20
0.013
 30
0
 11
-0.01924997397583846
 21
0.012
 31
0
 12
-0.01958300170205673
 22
0.012
 32
0
 13
-0.01958300170205673
 23
0.012
 33
0
  0
LINE
  5
71
100
AcDbEntity
  8
Recommended
  6
ByBlock
 62
    0
370
   -2
100
AcDbLine
 10
-0.0194164878389476
 20
-0.008
 11
-0.0194164878389476
 21
0.013
  0
MTEXT
  5
72
100
AcDbEntity
  8
Recommended
  6
CONTINUOUS
 62
    0
370
   -2
100
AcDbMText
 10
-0.0209164878389476
 20
0.0025
 30
0
 40
0.001
 41
0.002888888888888889
 71
    5
 72
    1
  1
0.021
  7
standard
210
0
220
0
230
1
 50
90
 73
    2
 44
1
  0
ENDBLK
  5
5D
330
5B
100
AcDbEntity
  8
0
100
AcDbBlockEnd
  0
BLOCK
  5
5F
330
5E
100
AcDbEntity
  8
0
100
AcDbBlockBegin
  2
*D4
 70
    1
 10
0
 20
0
  3
*D4
  1

  0
SOLID
  5
73
100
AcDbEntity
  8
Golden_R2_034
  6
ByBlock
 62
    0
370
   -2
100
AcDbTrace
 10
0.01949999999999998
 20
-0.01888355299286859
 30
0
 11
0.01969514982526482
 21
-0.0178887447639588
 31
0
 12
0.02000698066920075
 22
-0.01800565922499899
 32
0
 13
0.02000698066920075
 23
-0.01800565922499899
 33
0
  0
LINE
  5
74
100
AcDbEntity
  8
Golden_R2_034
  6
ByBlock
 62
    0
370
   -2
100
AcDbLine
 10
0.03143621840591516
 20
0.01295238095238095
 11
0.01949999999999998
 21
-0.01888355299286859
  0
MTEXT
  5
75
100
AcDbEntity
  8
Golden_R2_034
  6
CONTINUOUS
 62
    0
370
   -2
100
AcDbMText
 10
0.02406358270537303
 20
-0.00243898814939462
 30
0
 40
0.001
 41
0.003222222222222284
 71
    5
 72
    1
  1
0.034
  7
standard
210
0
220
0
230
1
 50
69.44751576323534
 73
    2
 44
1
  0
ENDBLK
  5
60
330
5E
100
AcDbEntity
  8
0
100
AcDbBlockEnd
  0
BLOCK
  5
62
330
61
100
AcDbEntity
  8
0
100
AcDbBlockBegin
  2
*D7
 70
    1
 10
0
 20
0
  3
*D7
  1

  0
SOLID
  5
76
100
AcDbEntity
  8
BoxCenter_R2_Golden_0275
  6
ByBlock
 62
    0
370
   -2
100
AcDbTrace
 10
0.0195
 20
-0.02053533423058419
 30
0
 11
0.0196066317558821
 21
-0.01952718913425875
 31
0
 12
0.01992756054630398
 22
-0.01961613955813892
 32
0
 13
0.01992756054630398
 23
-0.01961613955813892
 33
0
  0
LINE
  5
77
100
AcDbEntity
  8
BoxCenter_R2_Golden_0275
  6
ByBlock
 62
    0
370
   -2
100
AcDbLine
 10
0.02684514415505871
 20
0.005965587590013046
 11
0.0195
 21
-0.0205353342305842
  0
MTEXT
  5
78
100
AcDbEntity
  8
BoxCenter_R2_Golden_0275
  6
CONTINUOUS
 62
    0
370
   -2
100
AcDbMText
 10
0.02172706725095132
 20
-0.00688422909364601
 30
0
 40
0.001
 41
0.003111111111111111
 71
    5
 72
    1
  1
0.028
  7
standard
210
0
220
0
230
1
 50
74.50845627556875
 73
    2
 44
1
  0
ENDBLK
  5
63
330
61
100
AcDbEntity
  8
0
100
AcDbBlockEnd
  0
BLOCK
  5
65
330
64
100
AcDbEntity
  8
0
100
AcDbBlockBegin
  2
*D6
 70
    1
 10
0
 20
0
  3
*D6
  1

  0
SOLID
  5
79
100
AcDbEntity
  8
BoxCenter_R2_030
  6
ByBlock
 62
    0
370
   -2
100
AcDbTrace
 10
-0.01620470519905362
 20
0.01299895440021031
 30
0
 11
-0.01603819133594448
 21
0.01199895440021031
 31
0
 12
-0.01637121906216275
 22
0.01199895440021031
 32
0
 13
-0.01637121906216275
 23
0.01199895440021031
 33
0
  0
LINE
  5
7A
100
AcDbEntity
  8
BoxCenter_R2_030
  6
ByBlock
 62
    0
370
   -2
100
AcDbLine
 10
-0.01620470519905362
 20
-0.003601045599789695
 11
-0.01620470519905362
 21
0.01299895440021031
  0
MTEXT
  5
7B
100
AcDbEntity
  8
BoxCenter_R2_030
  6
CONTINUOUS
 62
    0
370
   -2
100
AcDbMText
 10
-0.01770470519905362
 20
0.004698954400210306
 30
0
 40
0.001
 41
0.002888888888888889
 71
    5
 72
    1
  1
0.017
  7
standard
210
0
220
0
230
1
 50
90
 73
    2
 44
1
  0
ENDBLK
  5
66
330
64
100
AcDbEntity
  8
0
100
AcDbBlockEnd
  0
ENDSEC
  0
SECTION
  2
ENTITIES
  0
LINE
  5
7C
100
AcDbEntity
  8
0
  6
ByLayer
 62
  256
370
   -1
100
AcDbLine
 10
-3.148252058354784e-017
 20
-0.5
 11
2.974779710757103e-017
 21
0.5
  0
LINE
  5
7D
100
AcDbEntity
  8
0
  6
ByLayer
 62
  256
370
   -1
100
AcDbLine
 10
-0.5
 20
8.673617379884035e-019
 11
0.5
 21
8.673617379884035e-019
  0
LINE
  5
7E
100
AcDbEntity
  8
0
  6
ByLayer
 62
  256
370
   -1
100
AcDbLine
 10
0.03899999999999997
 20
-0.5
 11
0.03900000000000003
 21
0.5
  0
LINE
  5
7F
100
AcDbEntity
  8
0
  6
ByLayer
 62
  256
370
   -1
100
AcDbLine
 10
-0.5
 20
0.013
 11
0.5
 21
0.013
  0
LINE
  5
80
100
AcDbEntity
  8
0
  6
ByLayer
 62
  256
370
   -1
100
AcDbLine
 10
-0.5
 20
-0.023
 11
0.5
 21
-0.023
  0
LINE
  5
81
100
AcDbEntity
  8
0
  6
ByLayer
 62
  256
370
   -1
100
AcDbLine
 10
0.01949999999999997
 20
-0.5
 11
0.01950000000000003
 21
0.5
  0
ARC
  5
82
100
AcDbEntity
  8
Recommended
  6
ByLayer
 62
  256
370
   -1
100
AcDbCircle
 10
-8.673617379884035e-019
 20
8.673617379884035e-019
 40
0.021
100
AcDbArc
 50
197.4348746947993
 51
208.0446869479748
  0
ARC
  5
83
100
AcDbEntity
  8
Recommended
  6
ByLayer
 62
  256
370
   -1
100
AcDbCircle
 10
-0.0194164878389476
 20
-0.008
 40
0.021
100
AcDbArc
 50
13.13346925620407
 51
112.8652848035932
  0
LINE
  5
84
100
AcDbEntity
  8
Recommended
  6
ByLayer
 62
  256
370
   -1
100
AcDbLine
 10
-0.02344539890559253
 20
-0.008
 11
-0.01430003053816282
 21
-0.008
  0
DIMENSION
  5
85
100
AcDbEntity
  8
Recommended
  6
ByLayer
 62
  256
370
   -1
100
AcDbDimension
  2
*D1
 10
-0.0194164878389476
 20
-0.008
 30
0
 11
-0.0209164878389476
 21
0.0025
 31
0
 70
   36
 71
    5
  3
Standard
 53
0
210
0
220
0
230
1
100
AcDbRadialDimension
 15
-0.0194164878389476
 25
0.013
 35
0
 40
0
  0
LINE
  5
86
100
AcDbEntity
  8
Recommended
  6
ByLayer
 62
  256
370
   -1
100
AcDbLine
 10
-0.02866243442892265
 20
-0.01180952380952381
 11
0.09245946589975047
 21
0.0380952380952381
  0
ARC
  5
87
100
AcDbEntity
  8
Recommended
  6
ByLayer
 62
  256
370
   -1
100
AcDbCircle
 10
1.241659605609259e-018
 20
2.703234527824384e-019
 40
0.023
100
AcDbArc
 50
17.65012421993012
 51
26.68879996848445
  0
ARC
  5
88
100
AcDbEntity
  8
Recommended
  6
ByLayer
 62
  256
370
   -1
100
AcDbCircle
 10
0.02126567715694261
 20
0.008761904761904762
 40
0.023
100
AcDbArc
 50
188.5467435540805
 51
277.112933293347
  0
ARC
  5
89
100
AcDbEntity
  8
Recommended
  6
ByLayer
 62
  256
370
   -1
100
AcDbCircle
 10
0.01773432284305739
 20
0.008761904761904764
 40
0.023
100
AcDbArc
 50
262.887066706653
 51
351.4532564459195
  0
DIMENSION
  5
8A
100
AcDbEntity
  8
Recommended
  6
ByLayer
 62
  256
370
   -1
100
AcDbDimension
  2
*D2
 10
0.02126567715694261
 20
0.008761904761904762
 30
0
 11
0.0188872651702829
 21
-0.002589005176144849
 31
0
 70
   36
 71
    5
  3
Standard
 53
0
210
0
220
0
230
1
100
AcDbRadialDimension
 15
0.0195
 25
-0.01417022083031741
 35
0
 40
0
  0
LINE
  5
8B
100
AcDbEntity
  8
FullDepth
  6
ByLayer
 62
  256
370
   -1
100
AcDbLine
 10
-8.673617379884035e-019
 20
5.389046861538054e-018
 11
0.0195
 21
-0.023
  0
LINE
  5
8C
100
AcDbEntity
  8
FullDepth
  6
ByLayer
 62
  256
370
   -1
100
AcDbLine
 10
-0.06652569634671122
 20
-0.07616852516351602
 11
0.08602569634671121
 21
0.05316852516351603
  0
ARC
  5
8D
100
AcDbEntity
  8
FullDepth
  6
ByLayer
 62
  256
370
   -1
100
AcDbCircle
 10
0.04535583273445744
 20
0.01868755384008349
 40
0.04905482883021916
100
AcDbArc
 50
194.0310933879287
 51
243.8721642382707
  0
ARC
  5
8E
100
AcDbEntity
  8
FullDepth
  6
ByLayer
 62
  256
370
   -1
100
AcDbCircle
 10
-0.006355832734457445
 20
0.01868755384008349
 40
0.04905482883021916
100
AcDbArc
 50
296.1278357617293
 51
345.9689066120713
  0
DIMENSION
  5
8F
100
AcDbEntity
  8
FullDepth
  6
ByLayer
 62
  256
370
   -1
100
AcDbDimension
  2
*D3
 10
0.04535583273445744
 20
0.01868755384008349
 30
0
 11
0.03115319311874793
 21
-0.001365602665484511
 31
0
 70
   36
 71
    5
  3
Standard
 53
0
210
0
220
0
230
1
100
AcDbRadialDimension
 15
0.01949999999999997
 25
-0.02299999999999998
 35
0
 40
0
  0
ARC
  5
90
100
AcDbEntity
  8
Golden_R2_034
  6
ByLayer
 62
  256
370
   -1
100
AcDbCircle
 10
1.199071110665447e-018
 20
2.527761001213116e-019
 40
0.034
100
AcDbArc
 50
19.46121234689875
 51
24.61639025833821
  0
ARC
  5
91
100
AcDbEntity
  8
Golden_R2_034
  6
ByLayer
 62
  256
370
   -1
100
AcDbCircle
 10
0.03143621840591516
 20
0.01295238095238095
 40
0.034
100
AcDbArc
 50
190.5006445504933
 51
253.8750226174842
  0
ARC
  5
92
100
AcDbEntity
  8
Golden_R2_034
  6
ByLayer
 62
  256
370
   -1
100
AcDbCircle
 10
0.007563781594084835
 20
0.01295238095238095
 40
0.034
100
AcDbArc
 50
286.1249773825158
 51
349.4993554495067
  0
DIMENSION
  5
93
100
AcDbEntity
  8
Golden_R2_034
  6
ByLayer
 62
  256
370
   -1
100
AcDbDimension
  2
*D4
 10
0.03143621840591516
 20
0.01295238095238095
 30
0
 11
0.02406358270537303
 21
-0.00243898814939462
 31
0
 70
   36
 71
    5
  3
Standard
 53
0
210
0
220
0
230
1
100
AcDbRadialDimension
 15
0.01949999999999998
 25
-0.01888355299286859
 35
0
 40
0
  0
LINE
  5
94
100
AcDbEntity
  8
BoxCenter_R2_030
  6
ByLayer
 62
  256
370
   -1
100
AcDbLine
 10
-0.02928561180551858
 20
-0.006507913734559684
 11
0.1268687060183953
 21
0.02819304578186562
  0
ARC
  5
95
100
AcDbEntity
  8
BoxCenter_R2_030
  6
ByLayer
 62
  256
370
   -1
100
AcDbCircle
 10
1.739557108455536e-018
 20
-1.059016375280277e-018
 40
0.02996351948620188
100
AcDbArc
 50
8.558874739097604
 51
15.91938783211767
  0
ARC
  5
96
100
AcDbEntity
  8
BoxCenter_R2_030
  6
ByLayer
 62
  256
370
   -1
100
AcDbCircle
 10
0.02924999999999999
 20
0.006499999999999998
 40
0.02996351948620188
100
AcDbArc
 50
177.4082914036353
 51
268.0815943420713
  0
ARC
  5
97
100
AcDbEntity
  8
BoxCenter_R2_030
  6
ByLayer
 62
  256
370
   -1
100
AcDbCircle
 10
0.009750000000000005
 20
0.006499999999999998
 40
0.02996351948620188
100
AcDbArc
 50
271.9184056579287
 51
2.591708596364692
  0
DIMENSION
  5
98
100
AcDbEntity
  8
BoxCenter_R2_030
  6
ByLayer
 62
  256
370
   -1
100
AcDbDimension
  2
*D5
 10
0.02924999999999999
 20
0.006499999999999998
 30
0
 11
0.02295663308488869
 21
-0.007178328036415207
 31
0
 70
   36
 71
    5
  3
Standard
 53
0
210
0
220
0
230
1
100
AcDbRadialDimension
 15
0.01949999999999999
 25
-0.02183284313301437
 35
0
 40
0
  0
ARC
  5
99
100
AcDbEntity
  8
BoxCenter_R2_030
  6
ByLayer
 62
  256
370
   -1
100
AcDbCircle
 10
-8.673617379884035e-019
 20
8.673617379884035e-019
 40
0.0166
100
AcDbArc
 50
188.901716032892
 51
196.7983717813053
  0
ARC
  5
9A
100
AcDbEntity
  8
BoxCenter_R2_030
  6
ByLayer
 62
  256
370
   -1
100
AcDbCircle
 10
-0.01620470519905362
 20
-0.003601045599789695
 40
0.0166
100
AcDbArc
 50
355.6632644680822
 51
119.0292232044651
  0
DIMENSION
  5
9B
100
AcDbEntity
  8
BoxCenter_R2_030
  6
ByLayer
 62
  256
370
   -1
100
AcDbDimension
  2
*D6
 10
-0.01620470519905362
 20
-0.003601045599789695
 30
0
 11
-0.01770470519905362
 21
0.004698954400210306
 31
0
 70
   36
 71
    5
  3
Standard
 53
0
210
0
220
0
230
1
100
AcDbRadialDimension
 15
-0.01620470519905362
 25
0.01299895440021031
 35
0
 40
0
  0
ARC
  5
9C
100
AcDbEntity
  8
BoxCenter_R2_Golden_0275
  6
ByLayer
 62
  256
370
   -1
100
AcDbCircle
 10
1.04082586181646e-017
 20
8.673617379884035e-019
 40
0.0275
100
AcDbArc
 50
9.46232220802562
 51
15.60214022022487
  0
ARC
  5
9D
100
AcDbEntity
  8
BoxCenter_R2_Golden_0275
  6
ByLayer
 62
  256
370
   -1
100
AcDbCircle
 10
0.02684514415505871
 20
0.005965587590013046
 40
0.0275
100
AcDbArc
 50
179.1545512865181
 51
281.3885953261955
  0
ARC
  5
9E
100
AcDbEntity
  8
BoxCenter_R2_Golden_0275
  6
ByLayer
 62
  256
370
   -1
100
AcDbCircle
 10
0.01215485584494129
 20
0.005965587590013048
 40
0.0275
100
AcDbArc
 50
258.6114046738045
 51
0.8454487134819377
  0
DIMENSION
  5
9F
100
AcDbEntity
  8
BoxCenter_R2_Golden_0275
  6
ByLayer
 62
  256
370
   -1
100
AcDbDimension
  2
*D7
 10
0.02684514415505871
 20
0.005965587590013046
 30
0
 11
0.02172706725095132
 21
-0.00688422909364601
 31
0
 70
   36
 71
    5
  3
Standard
 53
0
210
0
220
0
230
1
100
AcDbRadialDimension
 15
0.0195
 25
-0.02053533423058419
 35
0
 40
0
  0
ENDSEC
  0
SECTION
  2
OBJECTS
  0
DICTIONARY
  5
C
330
0
100
AcDbDictionary
281
    1
  3
ACAD_GROUP
350
D
  0
DICTIONARY
  5
D
330
C
100
AcDbDictionary
281
    1
  0
ENDSEC
  0
EOF
