999
dxfrw 0.6.3
  0
SECTION
  2
HEADER
  9
$ACADVER
  1
AC1021
  9
$DWGCODEPAGE
  3
ANSI_1252
  9
$INSBASE
 10
0
 20
0
 30
0
  9
$EXTMIN
 10
-0.5
 20
-0.5
 30
0
  9
$EXTMAX
 10
0.5
 20
0.5
 30
0
  9
$LIMMIN
 10
0
 20
0
  9
$LIMMAX
 10
420
 20
297
  9
$ORTHOMODE
 70
    0
  9
$REGENMODE
 70
    1
  9
$FILLMODE
 70
    1
  9
$QTEXTMODE
 70
    0
  9
$MIRRTEXT
 70
    0
  9
$LTSCALE
 40
1
  9
$ATTMODE
 70
    0
  9
$TEXTSIZE
 40
2.5
  9
$TRACEWID
 40
15.68
  9
$TEXTSTYLE
  7
STANDARD
  9
$CLAYER
  8
R2'A
  9
$CELTYPE
  6
BYLAYER
  9
$CECOLOR
 62
  256
  9
$CELTSCALE
 40
1
  9
$DISPSILH
 70
    0
  9
$DIMSCALE
 40
1
  9
$DIMASZ
 40
0.001
  9
$DIMEXO
 40
0.025
  9
$DIMDLI
 40
3.75
  9
$DIMRND
 40
0
  9
$DIMDLE
 40
0
  9
$DIMEXE
 40
0.05
  9
$DIMTP
 40
0
  9
$DIMTM
 40
0
  9
$DIMTXT
 40
0.001
  9
$DIMCEN
 40
2.5
  9
$DIMTSZ
 40
0
  9
$DIMTOL
 70
    0
  9
$DIMLIM
 70
    0
  9
$DIMTIH
 70
    0
  9
$DIMTOH
 70
    0
  9
$DIMSE1
 70
    0
  9
$DIMSE2
 70
    0
  9
$DIMTAD
 70
    1
  9
$DIMZIN
 70
    8
  9
$DIMBLK
  1

  9
$DIMASO
 70
    1
  9
$DIMSHO
 70
    1
  9
$DIMPOST
  1

  9
$DIMAPOST
  1

  9
$DIMALT
 70
    0
  9
$DIMALTD
 70
    3
  9
$DIMALTF
 40
0.03937
  9
$DIMLFAC
 40
1
  9
$DIMTOFL
 70
    1
  9
$DIMTVP
 40
0
  9
$DIMTIX
 70
    0
  9
$DIMSOXD
 70
    0
  9
$DIMSAH
 70
    0
  9
$DIMBLK1
  1

  9
$DIMBLK2
  1

  9
$DIMSTYLE
  2
STANDARD
  9
$DIMCLRD
 70
    0
  9
$DIMCLRE
 70
    0
  9
$DIMCLRT
 70
    0
  9
$DIMTFAC
 40
1
  9
$DIMGAP
 40
0.001
  9
$DIMJUST
 70
    0
  9
$DIMSD1
 70
    0
  9
$DIMSD2
 70
    0
  9
$DIMTOLJ
 70
    0
  9
$DIMTZIN
 70
    8
  9
$DIMALTZ
 70
    0
  9
$DIMALTTZ
 70
    0
  9
$DIMUPT
 70
    0
  9
$DIMDEC
 70
    4
  9
$DIMTDEC
 70
    2
  9
$DIMALTU
 70
    2
  9
$DIMALTTD
 70
    3
  9
$DIMTXSTY
  7
standard
  9
$DIMAUNIT
 70
    0
  9
$DIMADEC
 70
    2
  9
$DIMALTRND
 40
0
  9
$DIMAZIN
 70
    0
  9
$DIMDSEP
 70
    0
  9
$DIMATFIT
 70
    3
  9
$DIMFRAC
 70
    0
  9
$DIMLDRBLK
  1
STANDARD
  9
$DIMLUNIT
 70
    2
  9
$DIMLWD
 70
   -2
  9
$DIMLWE
 70
   -2
  9
$DIMTMOVE
 70
    0
  9
$DIMFXL
 40
1
  9
$DIMFXLON
 70
    0
  9
$DIMJOGANG
 40
0.7854
  9
$DIMTFILL
 70
    0
  9
$DIMTFILLCLR
 70
    0
  9
$DIMARCSYM
 70
    0
  9
$DIMLTYPE
  6

  9
$DIMLTEX1
  6

  9
$DIMLTEX2
  6

  9
$LUNITS
 70
    2
  9
$LUPREC
 70
    4
  9
$SKETCHINC
 40
1
  9
$FILLETRAD
 40
0
  9
$AUNITS
 70
    0
  9
$AUPREC
 70
    2
  9
$MENU
  1
.
  9
$ELEVATION
 40
0
  9
$PELEVATION
 40
0
  9
$THICKNESS
 40
0
  9
$LIMCHECK
 70
    0
  9
$CHAMFERA
 40
0
  9
$CHAMFERB
 40
0
  9
$CHAMFERC
 40
0
  9
$CHAMFERD
 40
0
  9
$SKPOLY
 70
    0
  9
$USRTIMER
 70
    1
  9
$ANGBASE
 50
0
  9
$ANGDIR
 70
    0
  9
$PDMODE
 70
   34
  9
$PDSIZE
 40
0
  9
$PLINEWID
 40
0
  9
$SPLFRAME
 70
    0
  9
$SPLINETYPE
 70
    2
  9
$SPLINESEGS
 70
    8
  9
$HANDSEED
  5
20000
  9
$SURFTAB1
 70
    6
  9
$SURFTAB2
 70
    6
  9
$SURFTYPE
 70
    6
  9
$SURFU
 70
    6
  9
$SURFV
 70
    6
  9
$UCSBASE
  2

  9
$UCSNAME
  2

  9
$UCSORG
 10
0
 20
0
 30
0
  9
$UCSXDIR
 10
1
 20
0
 30
0
  9
$UCSYDIR
 10
0
 20
1
 30
0
  9
$UCSORTHOREF
  2

  9
$UCSORTHOVIEW
 70
    0
  9
$UCSORGTOP
 10
0
 20
0
 30
0
  9
$UCSORGBOTTOM
 10
0
 20
0
 30
0
  9
$UCSORGLEFT
 10
0
 20
0
 30
0
  9
$UCSORGRIGHT
 10
0
 20
0
 30
0
  9
$UCSORGFRONT
 10
0
 20
0
 30
0
  9
$UCSORGBACK
 10
0
 20
0
 30
0
  9
$PUCSBASE
  2

  9
$PUCSNAME
  2

  9
$PUCSORG
 10
0
 20
0
 30
0
  9
$PUCSXDIR
 10
1
 20
0
 30
0
  9
$PUCSYDIR
 10
0
 20
1
 30
0
  9
$PUCSORTHOREF
  2

  9
$PUCSORTHOVIEW
 70
    0
  9
$PUCSORGTOP
 10
0
 20
0
 30
0
  9
$PUCSORGBOTTOM
 10
0
 20
0
 30
0
  9
$PUCSORGLEFT
 10
0
 20
0
 30
0
  9
$PUCSORGRIGHT
 10
0
 20
0
 30
0
  9
$PUCSORGFRONT
 10
0
 20
0
 30
0
  9
$PUCSORGBACK
 10
0
 20
0
 30
0
  9
$USERI1
 70
    0
  9
$USERI2
 70
    0
  9
$USERI3
 70
    0
  9
$USERI4
 70
    0
  9
$USERI5
 70
    0
  9
$USERR1
 40
0
  9
$USERR2
 40
0
  9
$USERR3
 40
0
  9
$USERR4
 40
0
  9
$USERR5
 40
0
  9
$WORLDVIEW
 70
    1
  9
$SHADEDGE
 70
    3
  9
$SHADEDIF
 70
   70
  9
$TILEMODE
 70
    1
  9
$MAXACTVP
 70
   64
  9
$PINSBASE
 10
0
 20
0
 30
0
  9
$PLIMCHECK
 70
    0
  9
$PEXTMIN
 10
0
 20
0
 30
0
  9
$PEXTMAX
 10
0
 20
0
 30
0
  9
$GRIDMODE
 70
    1
  9
$SNAPSTYLE
 70
    0
  9
$GRIDUNIT
 10
0
 20
0
  9
$PLIMMIN
 10
0
 20
0
  9
$PLIMMAX
 10
4.7719e-011
 20
6.7493e-011
  9
$UNITMODE
 70
    0
  9
$VISRETAIN
 70
    1
  9
$PLINEGEN
 70
    0
  9
$PSLTSCALE
 70
    1
  9
$TREEDEPTH
 70
 3020
  9
$CMLSTYLE
  2
Standard
  9
$CMLJUST
 70
    0
  9
$CMLSCALE
 40
20
  9
$PROXYGRAPHICS
 70
    1
  9
$MEASUREMENT
 70
    1
  9
$CELWEIGHT
370
   -1
  9
$ENDCAPS
280
    0
  9
$JOINSTYLE
280
    0
  9
$LWDISPLAY
290
    0
  9
$INSUNITS
 70
    0
  9
$HYPERLINKBASE
  1

  9
$STYLESHEET
  1

  9
$XEDIT
290
    1
  9
$CEPSNTYPE
380
    0
  9
$PSTYLEMODE
290
    1
  9
$EXTNAMES
290
    1
  9
$PSVPSCALE
 40
1
  9
$OLESTARTUP
290
    0
  9
$SORTENTS
280
  127
  9
$INDEXCTL
280
    0
  9
$HIDETEXT
280
    1
  9
$XCLIPFRAME
290
    0
  9
$HALOGAP
280
    0
  9
$OBSCOLOR
 70
  257
  9
$OBSLTYPE
280
    0
  9
$INTERSECTIONDISPLAY
280
    0
  9
$INTERSECTIONCOLOR
 70
  257
  9
$DIMASSOC
280
    1
  9
$PROJECTNAME
  1

  9
$CAMERADISPLAY
290
    0
  9
$LENSLENGTH
 40
50
  9
$CAMERAHEIGHT
 40
0
  9
$STEPSPERSEC
 40
2
  9
$STEPSIZE
 40
50
  9
$3DDWFPREC
 40
2
  9
$PSOLWIDTH
 40
5
  9
$PSOLHEIGHT
 40
80
  9
$LOFTANG1
 40
1.570796326794897
  9
$LOFTANG2
 40
1.570796326794897
  9
$LOFTMAG1
 40
0
  9
$LOFTMAG2
 40
0
  9
$LOFTPARAM
 70
    7
  9
$LOFTNORMALS
280
    1
  9
$LATITUDE
 40
1
  9
$LONGITUDE
 40
1
  9
$NORTHDIRECTION
 40
0
  9
$TIMEZONE
 70
-8000
  9
$LIGHTGLYPHDISPLAY
280
    1
  9
$TILEMODELIGHTSYNCH
280
    1
  9
$SOLIDHIST
280
    1
  9
$SHOWHIST
280
    1
  9
$DWFFRAME
280
    2
  9
$DGNFRAME
280
    0
  9
$REALWORLDSCALE
290
    1
  9
$INTERFERECOLOR
 62
    1
  9
$CSHADOW
280
    0
  9
$SHADOWPLANELOCATION
 40
0
  0
ENDSEC
  0
SECTION
  2
CLASSES
  0
ENDSEC
  0
SECTION
  2
TABLES
  0
TABLE
  2
VPORT
  5
8
330
0
100
AcDbSymbolTable
 70
    1
  0
VPORT
  5
31
330
2
100
AcDbSymbolTableRecord
100
AcDbViewportTableRecord
  2
*ACTIVE
 70
    0
 10
0
 20
0
 11
1
 21
1
 12
0.03533949733650408
 22
0.007136966888805384
 13
0
 23
0
 14
10
 24
10
 15
10
 25
10
 16
0
 26
0
 36
1
 17
0
 27
0
 37
0
 40
0.04121022816439238
 41
1.945996275605214
 42
50
 43
0
 44
0
 50
0
 51
0
 71
    0
 72
  100
 73
    1
 74
    3
 75
    0
 76
    1
 77
    0
 78
    0
281
    0
 65
    1
110
0
120
0
130
0
111
1
121
0
131
0
112
0
122
1
132
0
 79
    0
146
0
348
10020
 60
    7
 61
    5
292
1
282
    1
141
0
142
0
 63
  250
421
3358443
  0
ENDTAB
  0
TABLE
  2
LTYPE
  5
5
330
0
100
AcDbSymbolTable
 70
    4
  0
LTYPE
  5
14
330
5
100
AcDbSymbolTableRecord
100
AcDbLinetypeTableRecord
  2
ByBlock
 70
    0
  3

 72
   65
 73
    0
 40
0
  0
LTYPE
  5
15
330
5
100
AcDbSymbolTableRecord
100
AcDbLinetypeTableRecord
  2
ByLayer
 70
    0
  3

 72
   65
 73
    0
 40
0
  0
LTYPE
  5
16
330
5
100
AcDbSymbolTableRecord
100
AcDbLinetypeTableRecord
  2
Continuous
 70
    0
  3
Solid line
 72
   65
 73
    0
 40
0
  0
LTYPE
  5
32
330
5
100
AcDbSymbolTableRecord
100
AcDbLinetypeTableRecord
  2
DOT
 70
    0
  3
Dot . . . . . . . . . . . . . . . . . . . . . .
 72
   65
 73
    2
 40
6.35
 49
0
 74
    0
 49
-6.35
 74
    0
  0
LTYPE
  5
33
330
5
100
AcDbSymbolTableRecord
100
AcDbLinetypeTableRecord
  2
DOTTINY
 70
    0
  3
Dot (.15x) .....................................
 72
   65
 73
    2
 40
0.9525
 49
0
 74
    0
 49
-0.9525
 74
    0
  0
LTYPE
  5
34
330
5
100
AcDbSymbolTableRecord
100
AcDbLinetypeTableRecord
  2
DOT2
 70
    0
  3
Dot (.5x) .....................................
 72
   65
 73
    2
 40
3.175
 49
0
 74
    0
 49
-3.175
 74
    0
  0
LTYPE
  5
35
330
5
100
AcDbSymbolTableRecord
100
AcDbLinetypeTableRecord
  2
DOTX2
 70
    0
  3
Dot (2x) .  .  .  .  .  .  .  .  .  .  .  .  .
 72
   65
 73
    2
 40
12.7
 49
0
 74
    0
 49
-12.7
 74
    0
  0
LTYPE
  5
36
330
5
100
AcDbSymbolTableRecord
100
AcDbLinetypeTableRecord
  2
DASHED
 70
    0
  3
Dashed _ _ _ _ _ _ _ _ _ _ _ _ _ _ _ _ _
 72
   65
 73
    2
 40
19.05
 49
12.7
 74
    0
 49
-6.35
 74
    0
  0
LTYPE
  5
37
330
5
100
AcDbSymbolTableRecord
100
AcDbLinetypeTableRecord
  2
DASHEDTINY
 70
    0
  3
Dashed (.15x) _ _ _ _ _ _ _ _ _ _ _ _ _ _ _ _ _
 72
   65
 73
    2
 40
2.8575
 49
1.905
 74
    0
 49
-0.9525
 74
    0
  0
LTYPE
  5
38
330
5
100
AcDbSymbolTableRecord
100
AcDbLinetypeTableRecord
  2
DASHED2
 70
    0
  3
Dashed (.5x) _ _ _ _ _ _ _ _ _ _ _ _ _ _ _ _ _
 72
   65
 73
    2
 40
9.524999999999999
 49
6.35
 74
    0
 49
-3.175
 74
    0
  0
LTYPE
  5
39
330
5
100
AcDbSymbolTableRecord
100
AcDbLinetypeTableRecord
  2
DASHEDX2
 70
    0
  3
Dashed (2x) ____  ____  ____  ____  ____  ___
 72
   65
 73
    2
 40
38.09999999999999
 49
25.4
 74
    0
 49
-12.7
 74
    0
  0
LTYPE
  5
3A
330
5
100
AcDbSymbolTableRecord
100
AcDbLinetypeTableRecord
  2
DASHDOT
 70
    0
  3
Dash dot __ . __ . __ . __ . __ . __ . __ . __
 72
   65
 73
    4
 40
25.4
 49
12.7
 74
    0
 49
-6.35
 74
    0
 49
0
 74
    0
 49
-6.35
 74
    0
  0
LTYPE
  5
3B
330
5
100
AcDbSymbolTableRecord
100
AcDbLinetypeTableRecord
  2
DASHDOTTINY
 70
    0
  3
Dash dot (.15x) _._._._._._._._._._._._._._._.
 72
   65
 73
    4
 40
3.81
 49
1.905
 74
    0
 49
-0.9525
 74
    0
 49
0
 74
    0
 49
-0.9525
 74
    0
  0
LTYPE
  5
3C
330
5
100
AcDbSymbolTableRecord
100
AcDbLinetypeTableRecord
  2
DASHDOT2
 70
    0
  3
Dash dot (.5x) _._._._._._._._._._._._._._._.
 72
   65
 73
    4
 40
12.7
 49
6.35
 74
    0
 49
-3.175
 74
    0
 49
0
 74
    0
 49
-3.175
 74
    0
  0
LTYPE
  5
3D
330
5
100
AcDbSymbolTableRecord
100
AcDbLinetypeTableRecord
  2
DASHDOTX2
 70
    0
  3
Dash dot (2x) ____  .  ____  .  ____  .  ___
 72
   65
 73
    4
 40
50.8
 49
25.4
 74
    0
 49
-12.7
 74
    0
 49
0
 74
    0
 49
-12.7
 74
    0
  0
LTYPE
  5
3E
330
5
100
AcDbSymbolTableRecord
100
AcDbLinetypeTableRecord
  2
DIVIDE
 70
    0
  3
Divide ____ . . ____ . . ____ . . ____ . . ____
 72
   65
 73
    6
 40
31.75
 49
12.7
 74
    0
 49
-6.35
 74
    0
 49
0
 74
    0
 49
-6.35
 74
    0
 49
0
 74
    0
 49
-6.35
 74
    0
  0
LTYPE
  5
3F
330
5
100
AcDbSymbolTableRecord
100
AcDbLinetypeTableRecord
  2
DIVIDETINY
 70
    0
  3
Divide (.15x) __..__..__..__..__..__..__..__.._
 72
   65
 73
    6
 40
4.7625
 49
1.905
 74
    0
 49
-0.9525
 74
    0
 49
0
 74
    0
 49
-0.9525
 74
    0
 49
0
 74
    0
 49
-0.9525
 74
    0
  0
LTYPE
  5
40
330
5
100
AcDbSymbolTableRecord
100
AcDbLinetypeTableRecord
  2
DIVIDE2
 70
    0
  3
Divide (.5x) __..__..__..__..__..__..__..__.._
 72
   65
 73
    6
 40
15.875
 49
6.35
 74
    0
 49
-3.175
 74
    0
 49
0
 74
    0
 49
-3.175
 74
    0
 49
0
 74
    0
 49
-3.175
 74
    0
  0
LTYPE
  5
41
330
5
100
AcDbSymbolTableRecord
100
AcDbLinetypeTableRecord
  2
DIVIDEX2
 70
    0
  3
Divide (2x) ________  .  .  ________  .  .  _
 72
   65
 73
    6
 40
63.5
 49
25.4
 74
    0
 49
-12.7
 74
    0
 49
0
 74
    0
 49
-12.7
 74
    0
 49
0
 74
    0
 49
-12.7
 74
    0
  0
LTYPE
  5
42
330
5
100
AcDbSymbolTableRecord
100
AcDbLinetypeTableRecord
  2
BORDER
 70
    0
  3
Border __ __ . __ __ . __ __ . __ __ . __ __ .
 72
   65
 73
    6
 40
44.45
 49
12.7
 74
    0
 49
-6.35
 74
    0
 49
12.7
 74
    0
 49
-6.35
 74
    0
 49
0
 74
    0
 49
-6.35
 74
    0
  0
LTYPE
  5
43
330
5
100
AcDbSymbolTableRecord
100
AcDbLinetypeTableRecord
  2
BORDERTINY
 70
    0
  3
Border (.15x) __.__.__.__.__.__.__.__.__.__.__.
 72
   65
 73
    6
 40
6.6675
 49
1.905
 74
    0
 49
-0.9525
 74
    0
 49
1.905
 74
    0
 49
-0.9525
 74
    0
 49
0
 74
    0
 49
-0.9525
 74
    0
  0
LTYPE
  5
44
330
5
100
AcDbSymbolTableRecord
100
AcDbLinetypeTableRecord
  2
BORDER2
 70
    0
  3
Border (.5x) __.__.__.__.__.__.__.__.__.__.__.
 72
   65
 73
    6
 40
22.225
 49
6.35
 74
    0
 49
-3.175
 74
    0
 49
6.35
 74
    0
 49
-3.175
 74
    0
 49
0
 74
    0
 49
-3.175
 74
    0
  0
LTYPE
  5
45
330
5
100
AcDbSymbolTableRecord
100
AcDbLinetypeTableRecord
  2
BORDERX2
 70
    0
  3
Border (2x) ____  ____  .  ____  ____  .  ___
 72
   65
 73
    6
 40
88.89999999999999
 49
25.4
 74
    0
 49
-12.7
 74
    0
 49
25.4
 74
    0
 49
-12.7
 74
    0
 49
0
 74
    0
 49
-12.7
 74
    0
  0
LTYPE
  5
46
330
5
100
AcDbSymbolTableRecord
100
AcDbLinetypeTableRecord
  2
CENTER
 70
    0
  3
Center ____ _ ____ _ ____ _ ____ _ ____ _ ____
 72
   65
 73
    4
 40
50.8
 49
31.75
 74
    0
 49
-6.35
 74
    0
 49
6.35
 74
    0
 49
-6.35
 74
    0
  0
LTYPE
  5
47
330
5
100
AcDbSymbolTableRecord
100
AcDbLinetypeTableRecord
  2
CENTERTINY
 70
    0
  3
Center (.15x) ___ _ ___ _ ___ _ ___ _ ___ _ ___
 72
   65
 73
    4
 40
7.62
 49
4.7625
 74
    0
 49
-0.9525
 74
    0
 49
0.9525
 74
    0
 49
-0.9525
 74
    0
  0
LTYPE
  5
48
330
5
100
AcDbSymbolTableRecord
100
AcDbLinetypeTableRecord
  2
CENTER2
 70
    0
  3
Center (.5x) ___ _ ___ _ ___ _ ___ _ ___ _ ___
 72
   65
 73
    4
 40
28.575
 49
19.05
 74
    0
 49
-3.175
 74
    0
 49
3.175
 74
    0
 49
-3.175
 74
    0
  0
LTYPE
  5
49
330
5
100
AcDbSymbolTableRecord
100
AcDbLinetypeTableRecord
  2
CENTERX2
 70
    0
  3
Center (2x) ________  __  ________  __  _____
 72
   65
 73
    4
 40
101.6
 49
63.5
 74
    0
 49
-12.7
 74
    0
 49
12.7
 74
    0
 49
-12.7
 74
    0
  0
ENDTAB
  0
TABLE
  2
LAYER
  5
2
330
0
100
AcDbSymbolTable
 70
    1
  0
LAYER
  5
10
330
2
100
AcDbSymbolTableRecord
100
AcDbLayerTableRecord
  2
0
 70
    4
 62
    7
  6
CONTINUOUS
370
    0
390
F
  0
LAYER
  5
4A
330
2
100
AcDbSymbolTableRecord
100
AcDbLayerTableRecord
  2
CL
 70
    5
 62
   92
420
45824
  6
CONTINUOUS
370
    0
390
F
  0
LAYER
  5
4B
330
2
100
AcDbSymbolTableRecord
100
AcDbLayerTableRecord
  2
CL'A
 70
    4
 62
    3
  6
CONTINUOUS
370
    0
390
F
  0
LAYER
  5
4C
330
2
100
AcDbSymbolTableRecord
100
AcDbLayerTableRecord
  2
CL'B
 70
    5
 62
   92
420
57600
  6
CONTINUOUS
370
    0
390
F
  0
LAYER
  5
4D
330
2
100
AcDbSymbolTableRecord
100
AcDbLayerTableRecord
  2
CL'C
 70
    5
 62
   92
420
51200
  6
CONTINUOUS
370
    0
390
F
  0
LAYER
  5
4E
330
2
100
AcDbSymbolTableRecord
100
AcDbLayerTableRecord
  2
CL'D
 70
    5
 62
   92
420
49920
  6
CONTINUOUS
370
    0
390
F
  0
LAYER
  5
4F
330
2
100
AcDbSymbolTableRecord
100
AcDbLayerTableRecord
  2
CL'E
 70
    5
 62
   92
420
50688
  6
CONTINUOUS
370
    0
390
F
  0
LAYER
  5
50
330
2
100
AcDbSymbolTableRecord
100
AcDbLayerTableRecord
  2
CL'F
 70
    5
 62
    3
  6
CONTINUOUS
370
    0
390
F
  0
LAYER
  5
51
330
2
100
AcDbSymbolTableRecord
100
AcDbLayerTableRecord
  2
R1
 70
    5
 62
  132
420
46003
  6
CONTINUOUS
370
    0
390
F
  0
LAYER
  5
52
330
2
100
AcDbSymbolTableRecord
100
AcDbLayerTableRecord
  2
R1'A
 70
    4
 62
    4
  6
CONTINUOUS
370
    0
390
F
  0
LAYER
  5
53
330
2
100
AcDbSymbolTableRecord
100
AcDbLayerTableRecord
  2
R1'B
 70
    5
 62
  132
420
57825
  6
CONTINUOUS
370
    0
390
F
  0
LAYER
  5
54
330
2
100
AcDbSymbolTableRecord
100
AcDbLayerTableRecord
  2
R1'C
 70
    5
 62
  132
420
51400
  6
CONTINUOUS
370
    0
390
F
  0
LAYER
  5
55
330
2
100
AcDbSymbolTableRecord
100
AcDbLayerTableRecord
  2
R1'D
 70
    5
 62
  132
420
50115
  6
CONTINUOUS
370
    0
390
F
  0
LAYER
  5
56
330
2
100
AcDbSymbolTableRecord
100
AcDbLayerTableRecord
  2
R1'E
 70
    5
 62
  132
420
50886
  6
CONTINUOUS
370
    0
390
F
  0
LAYER
  5
57
330
2
100
AcDbSymbolTableRecord
100
AcDbLayerTableRecord
  2
R1'F
 70
    5
 62
    4
  6
CONTINUOUS
370
    0
390
F
  0
LAYER
  5
58
330
2
100
AcDbSymbolTableRecord
100
AcDbLayerTableRecord
  2
R2
 70
    5
 62
  212
420
12386493
  6
CONTINUOUS
370
    0
390
F
  0
LAYER
  5
59
330
2
100
AcDbSymbolTableRecord
100
AcDbLayerTableRecord
  2
R2'A
 70
    0
 62
    6
  6
CONTINUOUS
370
    0
390
F
  0
LAYER
  5
5A
330
2
100
AcDbSymbolTableRecord
100
AcDbLayerTableRecord
  2
R2'B
 70
    5
 62
  212
420
14745825
  6
CONTINUOUS
370
    0
390
F
  0
LAYER
  5
5B
330
2
100
AcDbSymbolTableRecord
100
AcDbLayerTableRecord
  2
R2'C
 70
    5
 62
  212
420
13107400
  6
CONTINUOUS
370
    0
390
F
  0
LAYER
  5
5C
330
2
100
AcDbSymbolTableRecord
100
AcDbLayerTableRecord
  2
R2'D
 70
    5
 62
  212
420
12779715
  6
CONTINUOUS
370
    0
390
F
  0
LAYER
  5
5D
330
2
100
AcDbSymbolTableRecord
100
AcDbLayerTableRecord
  2
R2'E
 70
    5
 62
  212
420
12976326
  6
CONTINUOUS
370
    0
390
F
  0
LAYER
  5
5E
330
2
100
AcDbSymbolTableRecord
100
AcDbLayerTableRecord
  2
R2'F
 70
    5
 62
    6
  6
CONTINUOUS
370
    0
390
F
  0
ENDTAB
  0
TABLE
  2
STYLE
  5
3
330
0
100
AcDbSymbolTable
 70
    3
  0
STYLE
  5
5F
330
2
100
AcDbSymbolTableRecord
100
AcDbTextStyleTableRecord
  2
Standard
 70
    0
 40
0
 41
1
 50
0
 71
    0
 42
1
  3
txt
  4

  0
ENDTAB
  0
TABLE
  2
VIEW
  5
6
330
0
100
AcDbSymbolTable
 70
    0
  0
ENDTAB
  0
TABLE
  2
UCS
  5
7
330
0
100
AcDbSymbolTable
 70
    0
  0
ENDTAB
  0
TABLE
  2
APPID
  5
9
330
0
100
AcDbSymbolTable
 70
    1
  0
APPID
  5
12
330
9
100
AcDbSymbolTableRecord
100
AcDbRegAppTableRecord
  2
ACAD
 70
    0
  0
APPID
  5
60
330
9
100
AcDbSymbolTableRecord
100
AcDbRegAppTableRecord
  2
LibreCad
 70
    0
  0
ENDTAB
  0
TABLE
  2
DIMSTYLE
  5
A
330
0
100
AcDbSymbolTable
 70
    1
100
AcDbDimStyleTable
 71
    1
  0
DIMSTYLE
105
61
330
A
100
AcDbSymbolTableRecord
100
AcDbDimStyleTableRecord
  2
Standard
 70
    0
 40
1
 41
0.001
 42
0.025
 43
0.38
 44
0.05
 45
0
 46
0
 47
0
 48
0
 49
1
140
0.001
141
0.09
142
0
143
25.4
144
1
145
0
146
1
147
0.001
148
0
 71
    0
 72
    0
 73
    0
 74
    1
 75
    0
 76
    0
 77
    0
 78
    8
 79
    0
170
    0
171
    2
172
    0
173
    0
174
    0
175
    0
176
    0
177
    0
178
    0
179
    2
271
    4
272
    4
273
    2
274
    2
275
    0
276
    0
277
    2
278
    0
279
    0
280
    0
281
    0
282
    0
283
    1
284
    0
285
    0
286
    0
288
    0
289
    3
340
standard
341

371
   -2
372
   -2
  0
ENDTAB
  0
TABLE
  2
BLOCK_RECORD
  5
1
330
0
100
AcDbSymbolTable
 70
    2
  0
BLOCK_RECORD
  5
1F
330
1
100
AcDbSymbolTableRecord
100
AcDbBlockTableRecord
  2
*Model_Space
 70
    0
280
    1
281
    0
  0
BLOCK_RECORD
  5
1E
330
1
100
AcDbSymbolTableRecord
100
AcDbBlockTableRecord
  2
*Paper_Space
 70
    0
280
    1
281
    0
  0
BLOCK_RECORD
  5
62
330
1
100
AcDbSymbolTableRecord
100
AcDbBlockTableRecord
  2
*D5
 70
    0
280
    1
281
    0
  0
BLOCK_RECORD
  5
65
330
1
100
AcDbSymbolTableRecord
100
AcDbBlockTableRecord
  2
*D10
 70
    0
280
    1
281
    0
  0
BLOCK_RECORD
  5
68
330
1
100
AcDbSymbolTableRecord
100
AcDbBlockTableRecord
  2
*D14
 70
    0
280
    1
281
    0
  0
BLOCK_RECORD
  5
6B
330
1
100
AcDbSymbolTableRecord
100
AcDbBlockTableRecord
  2
*D4
 70
    0
280
    1
281
    0
  0
BLOCK_RECORD
  5
6E
330
1
100
AcDbSymbolTableRecord
100
AcDbBlockTableRecord
  2
*D9
 70
    0
280
    1
281
    0
  0
BLOCK_RECORD
  5
71
330
1
100
AcDbSymbolTableRecord
100
AcDbBlockTableRecord
  2
*D13
 70
    0
280
    1
281
    0
  0
BLOCK_RECORD
  5
74
330
1
100
AcDbSymbolTableRecord
100
AcDbBlockTableRecord
  2
*D3
 70
    0
280
    1
281
    0
  0
BLOCK_RECORD
  5
77
330
1
100
AcDbSymbolTableRecord
100
AcDbBlockTableRecord
  2
*D7
 70
    0
280
    1
281
    0
  0
BLOCK_RECORD
  5
7A
330
1
100
AcDbSymbolTableRecord
100
AcDbBlockTableRecord
  2
*D2
 70
    0
280
    1
281
    0
  0
BLOCK_RECORD
  5
7D
330
1
100
AcDbSymbolTableRecord
100
AcDbBlockTableRecord
  2
*D6
 70
    0
280
    1
281
    0
  0
BLOCK_RECORD
  5
80
330
1
100
AcDbSymbolTableRecord
100
AcDbBlockTableRecord
  2
*D1
 70
    0
280
    1
281
    0
  0
BLOCK_RECORD
  5
83
330
1
100
AcDbSymbolTableRecord
100
AcDbBlockTableRecord
  2
*D8
 70
    0
280
    1
281
    0
  0
BLOCK_RECORD
  5
86
330
1
100
AcDbSymbolTableRecord
100
AcDbBlockTableRecord
  2
*D12
 70
    0
280
    1
281
    0
  0
BLOCK_RECORD
  5
89
330
1
100
AcDbSymbolTableRecord
100
AcDbBlockTableRecord
  2
*D11
 70
    0
280
    1
281
    0
  0
ENDTAB
  0
ENDSEC
  0
SECTION
  2
BLOCKS
  0
BLOCK
  5
20
330
1F
100
AcDbEntity
  8
0
100
AcDbBlockBegin
  2
*Model_Space
 70
    0
 10
0
 20
0
 30
0
  3
*Model_Space
  1

  0
ENDBLK
  5
21
330
1F
100
AcDbEntity
  8
0
100
AcDbBlockEnd
  0
BLOCK
  5
1C
330
1B
100
AcDbEntity
  8
0
100
AcDbBlockBegin
  2
*Paper_Space
 70
    0
 10
0
 20
0
 30
0
  3
*Paper_Space
  1

  0
ENDBLK
  5
1D
330
1F
100
AcDbEntity
  8
0
100
AcDbBlockEnd
  0
BLOCK
  5
63
330
62
100
AcDbEntity
  8
0
100
AcDbBlockBegin
  2
*D5
 70
    1
 10
0
 20
0
  3
*D5
  1

  0
SOLID
  5
8C
100
AcDbEntity
  8
R1'C
  6
ByBlock
 62
    0
370
   -2
100
AcDbTrace
 10
-0.02224859546128698
 20
0.015
 30
0
 11
-0.02208208159817784
 21
0.014
 31
0
 12
-0.02241510932439612
 22
0.014
 32
0
 13
-0.02241510932439612
 23
0.014
 33
0
  0
LINE
  5
8D
100
AcDbEntity
  8
R1'C
  6
ByBlock
 62
    0
370
   -2
100
AcDbLine
 10
-0.02224859546128698
 20
-0.008999999999999999
 11
-0.02224859546128698
 21
0.015
  0
MTEXT
  5
8E
100
AcDbEntity
  8
R1'C
  6
CONTINUOUS
 62
    0
370
   -2
100
AcDbMText
 10
-0.02374859546128698
 20
0.003000000000000001
 30
0
 40
0.001
 41
0.003222222222222223
 71
    5
 72
    1
  1
0.024
  7
standard
210
0
220
0
230
1
 50
90
 73
    2
 44
1
  0
ENDBLK
  5
64
330
62
100
AcDbEntity
  8
0
100
AcDbBlockEnd
  0
BLOCK
  5
66
330
65
100
AcDbEntity
  8
0
100
AcDbBlockBegin
  2
*D10
 70
    1
 10
0
 20
0
  3
*D10
  1

  0
SOLID
  5
8F
100
AcDbEntity
  8
R2'E
  6
ByBlock
 62
    0
370
   -2
100
AcDbTrace
 10
0.02399999999999998
 20
-0.02318460755066512
 30
0
 11
0.02409131126486571
 21
-0.0221749595330292
 31
0
 12
0.02441355372425172
 22
-0.0222590265527157
 32
0
 13
0.02441355372425172
 23
-0.0222590265527157
 33
0
  0
LINE
  5
90
100
AcDbEntity
  8
R2'E
  6
ByBlock
 62
    0
370
   -2
100
AcDbLine
 10
0.03258270481499694
 20
0.00971428571428572
 11
0.02399999999999998
 21
-0.02318460755066512
  0
MTEXT
  5
91
100
AcDbEntity
  8
R2'E
  6
CONTINUOUS
 62
    0
370
   -2
100
AcDbMText
 10
0.02683993064580945
 20
-0.006356512176351601
 30
0
 40
0.001
 41
0.003222222222222284
 71
    5
 72
    1
  1
0.034
  7
standard
210
0
220
0
230
1
 50
75.37849850310585
 73
    2
 44
1
  0
ENDBLK
  5
67
330
65
100
AcDbEntity
  8
0
100
AcDbBlockEnd
  0
BLOCK
  5
69
330
68
100
AcDbEntity
  8
0
100
AcDbBlockBegin
  2
*D14
 70
    1
 10
0
 20
0
  3
*D14
  1

  0
SOLID
  5
92
100
AcDbEntity
  8
R2'F
  6
ByBlock
 62
    0
370
   -2
100
AcDbTrace
 10
0.02399999999999998
 20
-0.02370222891405053
 30
0
 11
0.02402640114851712
 21
-0.02268880410383297
 31
0
 12
0.02435336984896837
 22
-0.02275204123972109
 32
0
 13
0.02435336984896837
 23
-0.02275204123972109
 33
0
  0
LINE
  5
93
100
AcDbEntity
  8
R2'F
  6
ByBlock
 62
    0
370
   -2
100
AcDbLine
 10
0.02977251916178021
 20
0.006144680851063855
 11
0.02399999999999998
 21
-0.02370222891405053
  0
MTEXT
  5
94
100
AcDbEntity
  8
R2'F
  6
CONTINUOUS
 62
    0
370
   -2
100
AcDbMText
 10
0.02541355021747985
 20
-0.00849394578337918
 30
0
 40
0.001
 41
0.004000000000000063
 71
    5
 72
    1
  1
0.0304
  7
standard
210
0
220
0
230
1
 50
79.05389788613635
 73
    2
 44
1
  0
ENDBLK
  5
6A
330
68
100
AcDbEntity
  8
0
100
AcDbBlockEnd
  0
BLOCK
  5
6C
330
6B
100
AcDbEntity
  8
0
100
AcDbBlockBegin
  2
*D4
 70
    1
 10
0
 20
0
  3
*D4
  1

  0
SOLID
  5
95
100
AcDbEntity
  8
R2'B
  6
ByBlock
 62
    0
370
   -2
100
AcDbTrace
 10
0.02399999999999999
 20
-0.02309110477854782
 30
0
 11
0.02412157610770159
 21
-0.02208465253594331
 31
0
 12
0.02444114997847544
 22
-0.02217835423042493
 32
0
 13
0.02444114997847544
 23
-0.02217835423042493
 33
0
  0
LINE
  5
96
100
AcDbEntity
  8
R2'B
  6
ByBlock
 62
    0
370
   -2
100
AcDbLine
 10
0.03412906955118691
 20
0.01145454545454546
 11
0.02399999999999999
 21
-0.02309110477854781
  0
MTEXT
  5
97
100
AcDbEntity
  8
R2'B
  6
CONTINUOUS
 62
    0
370
   -2
100
AcDbMText
 10
0.02762513268254789
 20
-0.00539623509736839
 30
0
 40
0.001
 41
0.003111111111111235
 71
    5
 72
    1
  1
0.036
  7
standard
210
0
220
0
230
1
 50
73.6584277709826
 73
    2
 44
1
  0
ENDBLK
  5
6D
330
6B
100
AcDbEntity
  8
0
100
AcDbBlockEnd
  0
BLOCK
  5
6F
330
6E
100
AcDbEntity
  8
0
100
AcDbBlockBegin
  2
*D9
 70
    1
 10
0
 20
0
  3
*D9
  1

  0
SOLID
  5
98
100
AcDbEntity
  8
R1'E
  6
ByBlock
 62
    0
370
   -2
100
AcDbTrace
 10
-0.0201246
 20
0.015
 30
0
 11
-0.01995808613689086
 21
0.014
 31
0
 12
-0.02029111386310914
 22
0.014
 32
0
 13
-0.02029111386310914
 23
0.014
 33
0
  0
LINE
  5
99
100
AcDbEntity
  8
R1'E
  6
ByBlock
 62
    0
370
   -2
100
AcDbLine
 10
-0.0201246
 20
-0.006
 11
-0.0201246
 21
0.015
  0
MTEXT
  5
9A
100
AcDbEntity
  8
R1'E
  6
CONTINUOUS
 62
    0
370
   -2
100
AcDbMText
 10
-0.0216246
 20
0.004500000000000001
 30
0
 40
0.001
 41
0.002888888888888889
 71
    5
 72
    1
  1
0.021
  7
standard
210
0
220
0
230
1
 50
90
 73
    2
 44
1
  0
ENDBLK
  5
70
330
6E
100
AcDbEntity
  8
0
100
AcDbBlockEnd
  0
BLOCK
  5
72
330
71
100
AcDbEntity
  8
0
100
AcDbBlockBegin
  2
*D13
 70
    1
 10
0
 20
0
  3
*D13
  1

  0
SOLID
  5
9B
100
AcDbEntity
  8
R1'F
  6
ByBlock
 62
    0
370
   -2
100
AcDbTrace
 10
-0.01841195263952196
 20
0.015
 30
0
 11
-0.01824543877641282
 21
0.014
 31
0
 12
-0.01857846650263109
 22
0.014
 32
0
 13
-0.01857846650263109
 23
0.014
 33
0
  0
LINE
  5
9C
100
AcDbEntity
  8
R1'F
  6
ByBlock
 62
    0
370
   -2
100
AcDbLine
 10
-0.01841195263952196
 20
-0.0038
 11
-0.01841195263952196
 21
0.015
  0
MTEXT
  5
9D
100
AcDbEntity
  8
R1'F
  6
CONTINUOUS
 62
    0
370
   -2
100
AcDbMText
 10
-0.01991195263952196
 20
0.005600000000000001
 30
0
 40
0.001
 41
0.003666666666666667
 71
    5
 72
    1
  1
0.0188
  7
standard
210
0
220
0
230
1
 50
90
 73
    2
 44
1
  0
ENDBLK
  5
73
330
71
100
AcDbEntity
  8
0
100
AcDbBlockEnd
  0
BLOCK
  5
75
330
74
100
AcDbEntity
  8
0
100
AcDbBlockBegin
  2
*D3
 70
    1
 10
0
 20
0
  3
*D3
  1

  0
SOLID
  5
9E
100
AcDbEntity
  8
R1'B
  6
ByBlock
 62
    0
370
   -2
100
AcDbTrace
 10
-0.0208566536146142
 20
0.015
 30
0
 11
-0.02069013975150506
 21
0.014
 31
0
 12
-0.02102316747772334
 22
0.014
 32
0
 13
-0.02102316747772334
 23
0.014
 33
0
  0
LINE
  5
9F
100
AcDbEntity
  8
R1'B
  6
ByBlock
 62
    0
370
   -2
100
AcDbLine
 10
-0.0208566536146142
 20
-0.007
 11
-0.0208566536146142
 21
0.015
  0
MTEXT
  5
A0
100
AcDbEntity
  8
R1'B
  6
CONTINUOUS
 62
    0
370
   -2
100
AcDbMText
 10
-0.0223566536146142
 20
0.003999999999999999
 30
0
 40
0.001
 41
0.003111111111111111
 71
    5
 72
    1
  1
0.022
  7
standard
210
0
220
0
230
1
 50
90
 73
    2
 44
1
  0
ENDBLK
  5
76
330
74
100
AcDbEntity
  8
0
100
AcDbBlockEnd
  0
BLOCK
  5
78
330
77
100
AcDbEntity
  8
0
100
AcDbBlockBegin
  2
*D7
 70
    1
 10
0
 20
0
  3
*D7
  1

  0
SOLID
  5
A1
100
AcDbEntity
  8
R1'D
  6
ByBlock
 62
    0
370
   -2
100
AcDbTrace
 10
-0.01936491673103707
 20
0.015
 30
0
 11
-0.01919840286792793
 21
0.014
 31
0
 12
-0.01953143059414621
 22
0.014
 32
0
 13
-0.01953143059414621
 23
0.014
 33
0
  0
LINE
  5
A2
100
AcDbEntity
  8
R1'D
  6
ByBlock
 62
    0
370
   -2
100
AcDbLine
 10
-0.01936491673103707
 20
-0.005
 11
-0.01936491673103707
 21
0.015
  0
MTEXT
  5
A3
100
AcDbEntity
  8
R1'D
  6
CONTINUOUS
 62
    0
370
   -2
100
AcDbMText
 10
-0.02086491673103708
 20
0.005
 30
0
 40
0.001
 41
0.002333333333333334
 71
    5
 72
    1
  1
0.02
  7
standard
210
0
220
0
230
1
 50
90
 73
    2
 44
1
  0
ENDBLK
  5
79
330
77
100
AcDbEntity
  8
0
100
AcDbBlockEnd
  0
BLOCK
  5
7B
330
7A
100
AcDbEntity
  8
0
100
AcDbBlockBegin
  2
*D2
 70
    1
 10
0
 20
0
  3
*D2
  1

  0
SOLID
  5
A4
100
AcDbEntity
  8
R2'A
  6
ByBlock
 62
    0
370
   -2
100
AcDbTrace
 10
0.024
 20
-0.0272598906787694
 30
0
 11
0.02416892841018196
 21
-0.02626029573138275
 31
0
 12
0.02448372520297645
 22
-0.02636897160578189
 32
0
 13
0.02448372520297645
 23
-0.02636897160578189
 33
0
  0
LINE
  5
A5
100
AcDbEntity
  8
R2'A
  6
ByBlock
 62
    0
370
   -2
100
AcDbLine
 10
0.036
 20
0.007499999999999998
 11
0.024
 21
-0.0272598906787694
  0
MTEXT
  5
A6
100
AcDbEntity
  8
R2'A
  6
CONTINUOUS
 62
    0
370
   -2
100
AcDbMText
 10
0.02858211448471938
 20
-0.009390455129515897
 30
0
 40
0.001
 41
0.003888888888889013
 71
    5
 72
    1
  1
0.0368
  7
standard
210
0
220
0
230
1
 50
70.95402144738284
 73
    2
 44
1
  0
ENDBLK
  5
7C
330
7A
100
AcDbEntity
  8
0
100
AcDbBlockEnd
  0
BLOCK
  5
7E
330
7D
100
AcDbEntity
  8
0
100
AcDbBlockBegin
  2
*D6
 70
    1
 10
0
 20
0
  3
*D6
  1

  0
SOLID
  5
A7
100
AcDbEntity
  8
R2'C
  6
ByBlock
 62
    0
370
   -2
100
AcDbTrace
 10
0.02400000000000001
 20
-0.02235790576280196
 30
0
 11
0.02415007434779851
 21
-0.02135530686157556
 31
0
 12
0.02446686187191357
 22
-0.02145803529481177
 32
0
 13
0.02446686187191357
 23
-0.02145803529481177
 33
0
  0
LINE
  5
A8
100
AcDbEntity
  8
R2'C
  6
ByBlock
 62
    0
370
   -2
100
AcDbLine
 10
0.03596856266241398
 20
0.01455
 11
0.024
 21
-0.02235790576280197
  0
MTEXT
  5
A9
100
AcDbEntity
  8
R2'C
  6
CONTINUOUS
 62
    0
370
   -2
100
AcDbMText
 10
0.02855742930429455
 20
-0.003441250716616938
 30
0
 40
0.001
 41
0.003888888888888951
 71
    5
 72
    1
  1
0.0388
  7
standard
210
0
220
0
230
1
 50
72.03306409185549
 73
    2
 44
1
  0
ENDBLK
  5
7F
330
7D
100
AcDbEntity
  8
0
100
AcDbBlockEnd
  0
BLOCK
  5
81
330
80
100
AcDbEntity
  8
0
100
AcDbBlockBegin
  2
*D1
 70
    1
 10
0
 20
0
  3
*D1
  1

  0
SOLID
  5
AA
100
AcDbEntity
  8
R1'A
  6
ByBlock
 62
    0
370
   -2
100
AcDbTrace
 10
-0.01845182944967767
 20
0.01500068562728325
 30
0
 11
-0.0182851074379713
 21
0.01400072030917461
 31
0
 12
-0.01861813515697497
 22
0.01400065098871923
 32
0
 13
-0.01861813515697497
 23
0.01400065098871923
 33
0
  0
LINE
  5
AB
100
AcDbEntity
  8
R1'A
  6
ByBlock
 62
    0
370
   -2
100
AcDbLine
 10
-0.01844790702953543
 20
-0.003843313964486543
 11
-0.01845182944967767
 21
0.01500068562728325
  0
MTEXT
  5
AC
100
AcDbEntity
  8
R1'A
  6
CONTINUOUS
 62
    0
370
   -2
100
AcDbMText
 10
-0.01994986820711105
 20
0.00557837360309155
 30
0
 40
0.001
 41
0.003666666666666667
 71
    5
 72
    1
  1
0.0188
  7
standard
210
0
220
0
230
1
 50
90.01192624290228
 73
    2
 44
1
  0
ENDBLK
  5
82
330
80
100
AcDbEntity
  8
0
100
AcDbBlockEnd
  0
BLOCK
  5
84
330
83
100
AcDbEntity
  8
0
100
AcDbBlockBegin
  2
*D8
 70
    1
 10
0
 20
0
  3
*D8
  1

  0
SOLID
  5
AD
100
AcDbEntity
  8
R2'D
  6
ByBlock
 62
    0
370
   -2
100
AcDbTrace
 10
0.02399999999999999
 20
-0.02345037123403531
 30
0
 11
0.0240653577440609
 21
-0.02243871159171543
 31
0
 12
0.02438965244756131
 22
-0.02251447709647647
 32
0
 13
0.02438965244756131
 23
-0.02251447709647647
 33
0
  0
LINE
  5
AE
100
AcDbEntity
  8
R2'D
  6
ByBlock
 62
    0
370
   -2
100
AcDbLine
 10
0.03137116510428008
 20
0.00810000000000001
 11
0.02399999999999999
 21
-0.02345037123403531
  0
MTEXT
  5
AF
100
AcDbEntity
  8
R2'D
  6
CONTINUOUS
 62
    0
370
   -2
100
AcDbMText
 10
0.026224917217231
 20
-0.007333927973300979
 30
0
 40
0.001
 41
0.004000000000000063
 71
    5
 72
    1
  1
0.0324
  7
standard
210
0
220
0
230
1
 50
76.8497693281487
 73
    2
 44
1
  0
ENDBLK
  5
85
330
83
100
AcDbEntity
  8
0
100
AcDbBlockEnd
  0
BLOCK
  5
87
330
86
100
AcDbEntity
  8
0
100
AcDbBlockBegin
  2
*D12
 70
    1
 10
0
 20
0
  3
*D12
  1

  0
SOLID
  5
B0
100
AcDbEntity
  8
R2
  6
ByBlock
 62
    0
370
   -2
100
AcDbTrace
 10
0.02399999999999997
 20
-0.03
 30
0
 11
0.02445716066103549
 21
-0.0290951624473923
 31
0
 12
0.0247256996438874
 22
-0.02929212508628347
 32
0
 13
0.0247256996438874
 23
-0.02929212508628347
 33
0
  0
LINE
  5
B1
100
AcDbEntity
  8
R2
  6
ByBlock
 62
    0
370
   -2
100
AcDbLine
 10
0.0676634241728632
 20
0.02953073933829051
 11
0.02399999999999997
 21
-0.03
  0
MTEXT
  5
B2
100
AcDbEntity
  8
R2
  6
CONTINUOUS
 62
    0
370
   -2
100
AcDbMText
 10
0.04462217773668841
 20
0.0006525148978374729
 30
0
 40
0.001
 41
0.003888888888888951
 71
    5
 72
    1
  1
0.0738
  7
standard
210
0
220
0
230
1
 50
53.74143802997828
 73
    2
 44
1
  0
ENDBLK
  5
88
330
86
100
AcDbEntity
  8
0
100
AcDbBlockEnd
  0
BLOCK
  5
8A
330
89
100
AcDbEntity
  8
0
100
AcDbBlockBegin
  2
*D11
 70
    1
 10
0
 20
0
  3
*D11
  1

  0
SOLID
  5
B3
100
AcDbEntity
  8
R1
  6
ByBlock
 62
    0
370
   -2
100
AcDbTrace
 10
-0.02291287847477919
 20
0.015
 30
0
 11
-0.02274636461167005
 21
0.014
 31
0
 12
-0.02307939233788833
 22
0.014
 32
0
 13
-0.02307939233788833
 23
0.014
 33
0
  0
LINE
  5
B4
100
AcDbEntity
  8
R1
  6
ByBlock
 62
    0
370
   -2
100
AcDbLine
 10
-0.02291287847477919
 20
-0.01
 11
-0.02291287847477919
 21
0.015
  0
MTEXT
  5
B5
100
AcDbEntity
  8
R1
  6
CONTINUOUS
 62
    0
370
   -2
100
AcDbMText
 10
-0.02441287847477919
 20
0.0025
 30
0
 40
0.001
 41
0.003111111111111173
 71
    5
 72
    1
  1
0.025
  7
standard
210
0
220
0
230
1
 50
90
 73
    2
 44
1
  0
ENDBLK
  5
8B
330
89
100
AcDbEntity
  8
0
100
AcDbBlockEnd
  0
ENDSEC
  0
SECTION
  2
ENTITIES
  0
LINE
  5
B6
100
AcDbEntity
  8
0
  6
ByLayer
 62
  256
370
   -1
100
AcDbLine
 10
0.04799999999999997
 20
-0.5
 11
0.04800000000000004
 21
0.5
  0
LINE
  5
B7
100
AcDbEntity
  8
0
  6
ByLayer
 62
  256
370
   -1
100
AcDbLine
 10
-0.127
 20
-0.5
 11
-0.127
 21
0.5
  0
LINE
  5
B8
100
AcDbEntity
  8
0
  6
ByLayer
 62
  256
370
   -1
100
AcDbLine
 10
-0.5
 20
0.015
 11
0.5
 21
0.015
  0
LINE
  5
B9
100
AcDbEntity
  8
0
  6
ByLayer
 62
  256
370
   -1
100
AcDbLine
 10
-0.5
 20
-0.03
 11
0.5
 21
-0.03
  0
LINE
  5
BA
100
AcDbEntity
  8
0
  6
ByLayer
 62
  256
370
   -1
100
AcDbLine
 10
-0.5
 20
1.734723475976807e-018
 11
0.5
 21
1.734723475976807e-018
  0
ARC
  5
BB
100
AcDbEntity
  8
R1
  6
ByLayer
 62
  256
370
   -1
100
AcDbCircle
 10
1.040834085586084e-017
 20
-1.734723475976807e-018
 40
0.025
100
AcDbArc
 50
185.5915577557572
 51
237.2647737278924
  0
LINE
  5
BC
100
AcDbEntity
  8
R1
  6
ByLayer
 62
  256
370
   -1
100
AcDbLine
 10
-0.03
 20
-0.01
 11
-0.009999999999999992
 21
-0.01
  0
ARC
  5
BD
100
AcDbEntity
  8
R1
  6
ByLayer
 62
  256
370
   -1
100
AcDbCircle
 10
-0.02291287847477919
 20
-0.01
 40
0.025
100
AcDbArc
 50
0.1117285075737995
 51
112.1982100212964
  0
LINE
  5
BE
100
AcDbEntity
  8
0
  6
ByLayer
 62
  256
370
   -1
100
AcDbLine
 10
0.02399999999999997
 20
-0.5
 11
0.02400000000000003
 21
0.5
  0
LINE
  5
BF
100
AcDbEntity
  8
R2
  6
ByLayer
 62
  256
370
   -1
100
AcDbLine
 10
1.040834085586084e-017
 20
-1.322722474397831e-018
 11
0.024
 21
-0.03
  0
LINE
  5
C0
100
AcDbEntity
  8
R2
  6
ByLayer
 62
  256
370
   -1
100
AcDbLine
 10
-0.06608688094430307
 20
-0.07746950475544238
 11
0.09008688094430306
 21
0.04746950475544238
  0
ARC
  5
C1
100
AcDbEntity
  8
R2
  6
ByLayer
 62
  256
370
   -1
100
AcDbCircle
 10
0.0676634241728632
 20
0.02953073933829051
 40
0.07382684834572627
100
AcDbArc
 50
196.1147831223458
 51
243.1562447917071
  0
ARC
  5
C2
100
AcDbEntity
  8
R2
  6
ByLayer
 62
  256
370
   -1
100
AcDbCircle
 10
-0.01966342417286319
 20
0.02953073933829051
 40
0.07382684834572627
100
AcDbArc
 50
296.8437552082929
 51
343.8852168776542
  0
LINE
  5
C3
100
AcDbEntity
  8
CL'A
  6
ByLayer
 62
  256
370
   -1
100
AcDbLine
 10
0.035
 20
0.007500000000000001
 11
0.037
 21
0.007500000000000001
  0
LINE
  5
C4
100
AcDbEntity
  8
CL'A
  6
ByLayer
 62
  256
370
   -1
100
AcDbLine
 10
0.036
 20
0.006499999999999999
 11
0.036
 21
0.008499999999999999
  0
CIRCLE
  5
C5
100
AcDbEntity
  8
CL'A
  6
ByLayer
 62
  256
370
   -1
100
AcDbCircle
 10
0.036
 20
0.007500000000000001
 40
0.0003
  0
ARC
  5
C6
100
AcDbEntity
  8
R2'A
  6
ByLayer
 62
  256
370
   -1
100
AcDbCircle
 10
0.036
 20
0.007499999999999998
 40
0.03677295201639378
100
AcDbArc
 50
179.4293029263837
 51
273.9129030837392
  0
ARC
  5
C7
100
AcDbEntity
  8
R2'A
  6
ByLayer
 62
  256
370
   -1
100
AcDbCircle
 10
0.012
 20
0.0075
 40
0.03677295201639378
100
AcDbArc
 50
266.0870969162608
 51
0.5706970736163024
  0
LINE
  5
C8
100
AcDbEntity
  8
0
  6
ByLayer
 62
  256
370
   -1
100
AcDbLine
 10
-2.19415414656754e-017
 20
-0.5
 11
3.928877622544347e-017
 21
0.5
  0
ARC
  5
C9
100
AcDbEntity
  8
R1'A
  6
ByLayer
 62
  256
370
   -1
100
AcDbCircle
 10
0
 20
8.673617379884035e-019
 40
0.018844
100
AcDbArc
 50
186.0090059574945
 51
195.5241109967542
  0
ARC
  5
CA
100
AcDbEntity
  8
R1'A
  6
ByLayer
 62
  256
370
   -1
100
AcDbCircle
 10
-0.01844790702953543
 20
-0.003843313964486543
 40
0.018844
100
AcDbArc
 50
357.0227313382211
 51
106.8603739164608
  0
DIMENSION
  5
CB
100
AcDbEntity
  8
R1'A
  6
ByLayer
 62
  256
370
   -1
100
AcDbDimension
  2
*D1
 10
-0.01844790702953543
 20
-0.003843313964486543
 30
0
 11
-0.01994986820711105
 21
0.00557837360309155
 31
0
 70
   36
 71
    5
  3
Standard
 53
0
210
0
220
0
230
1
100
AcDbRadialDimension
 15
-0.01845182944967767
 25
0.01500068562728325
 35
0
 40
0
  0
DIMENSION
  5
CC
100
AcDbEntity
  8
R2'A
  6
ByLayer
 62
  256
370
   -1
100
AcDbDimension
  2
*D2
 10
0.036
 20
0.007499999999999998
 30
0
 11
0.02858211448471938
 21
-0.009390455129515897
 31
0
 70
   36
 71
    5
  3
Standard
 53
0
210
0
220
0
230
1
100
AcDbRadialDimension
 15
0.024
 25
-0.0272598906787694
 35
0
 40
0
  0
LINE
  5
CD
100
AcDbEntity
  8
CL'A
  6
ByLayer
 62
  256
370
   -1
100
AcDbLine
 10
0.0947388
 20
0.0197373
 11
-0.0293694
 21
-0.00611863
  0
LINE
  5
CE
100
AcDbEntity
  8
CL
  6
ByLayer
 62
  256
370
   -1
100
AcDbLine
 10
-0.0229129
 20
-0.01
 11
0.0916515
 21
0.04
  0
CIRCLE
  5
CF
100
AcDbEntity
  8
CL
  6
ByLayer
 62
  256
370
   -1
100
AcDbCircle
 10
0.0676634
 20
0.0295307
 40
0.0003
  0
LINE
  5
D0
100
AcDbEntity
  8
CL
  6
ByLayer
 62
  256
370
   -1
100
AcDbLine
 10
0.0666634
 20
0.0295307
 11
0.0686634
 21
0.0295307
  0
LINE
  5
D1
100
AcDbEntity
  8
CL
  6
ByLayer
 62
  256
370
   -1
100
AcDbLine
 10
0.0676634
 20
0.0285307
 11
0.0676634
 21
0.0305307
  0
ARC
  5
D2
100
AcDbEntity
  8
R1'B
  6
ByLayer
 62
  256
370
   -1
100
AcDbCircle
 10
8.673617379884035e-018
 20
1.734723475976807e-018
 40
0.022
100
AcDbArc
 50
195.2551187030578
 51
203.1530815641135
  0
ARC
  5
D3
100
AcDbEntity
  8
R1'B
  6
ByLayer
 62
  256
370
   -1
100
AcDbCircle
 10
-0.0208566536146142
 20
-0.007
 40
0.022
100
AcDbArc
 50
7.006579866798563
 51
111.8367019705235
  0
DIMENSION
  5
D4
100
AcDbEntity
  8
R1'B
  6
ByLayer
 62
  256
370
   -1
100
AcDbDimension
  2
*D3
 10
-0.0208566536146142
 20
-0.007
 30
0
 11
-0.0223566536146142
 21
0.003999999999999999
 31
0
 70
   36
 71
    5
 72
    0
  3
Standard
 53
0
210
0
220
0
230
1
100
AcDbRadialDimension
 15
-0.0208566536146142
 25
0.015
 35
0
 40
0
  0
LINE
  5
D5
100
AcDbEntity
  8
CL'B
  6
ByLayer
 62
  256
370
   -1
100
AcDbLine
 10
-0.03033695071216611
 20
-0.01018181818181818
 11
0.07584237678041533
 21
0.02545454545454546
  0
LINE
  5
D6
100
AcDbEntity
  8
R1'B
  6
ByLayer
 62
  256
370
   -1
100
AcDbLine
 10
-0.02843594516952618
 20
-0.007000000000000001
 11
-0.01312428238593516
 21
-0.007000000000000001
  0
ARC
  5
D7
100
AcDbEntity
  8
R2'B
  6
ByLayer
 62
  256
370
   -1
100
AcDbCircle
 10
1.909121053599282e-017
 20
1.734723475976807e-018
 40
0.036
100
AcDbArc
 50
14.4702941000659
 51
21.85719893270577
  0
ARC
  5
D8
100
AcDbEntity
  8
R2'B
  6
ByLayer
 62
  256
370
   -1
100
AcDbCircle
 10
0.03412906955118691
 20
0.01145454545454546
 40
0.036
100
AcDbArc
 50
189.1920618294006
 51
267.9168524924411
  0
ARC
  5
D9
100
AcDbEntity
  8
R2'B
  6
ByLayer
 62
  256
370
   -1
100
AcDbCircle
 10
0.01387093044881309
 20
0.01145454545454546
 40
0.036
100
AcDbArc
 50
272.0831475075589
 51
350.8079381705994
  0
DIMENSION
  5
DA
100
AcDbEntity
  8
R2'B
  6
ByLayer
 62
  256
370
   -1
100
AcDbDimension
  2
*D4
 10
0.03412906955118691
 20
0.01145454545454546
 30
0
 11
0.02762513268254789
 21
-0.00539623509736839
 31
0
 70
   36
 71
    5
 72
    0
  3
Standard
 53
0
210
0
220
0
230
1
100
AcDbRadialDimension
 15
0.02399999999999999
 25
-0.02309110477854782
 35
0
 40
0
  0
ARC
  5
DB
100
AcDbEntity
  8
R1'C
  6
ByLayer
 62
  256
370
   -1
100
AcDbCircle
 10
8.673617379884035e-018
 20
1.734723475976807e-018
 40
0.024
100
AcDbArc
 50
195.8380000013696
 51
209.2192466904846
  0
ARC
  5
DC
100
AcDbEntity
  8
R1'C
  6
ByLayer
 62
  256
370
   -1
100
AcDbCircle
 10
-0.02224859546128698
 20
-0.008999999999999999
 40
0.024
100
AcDbArc
 50
5.69573011122112
 51
116.288210128343
  0
DIMENSION
  5
DD
100
AcDbEntity
  8
R1'C
  6
ByLayer
 62
  256
370
   -1
100
AcDbDimension
  2
*D5
 10
-0.02224859546128698
 20
-0.008999999999999999
 30
0
 11
-0.02374859546128698
 21
0.003000000000000001
 31
0
 70
   36
 71
    5
 72
    0
  3
Standard
 53
0
210
0
220
0
230
1
100
AcDbRadialDimension
 15
-0.02224859546128698
 25
0.015
 35
0
 40
0
  0
LINE
  5
DE
100
AcDbEntity
  8
R1'C
  6
ByLayer
 62
  256
370
   -1
100
AcDbLine
 10
-0.03067363531632823
 20
-0.008999999999999999
 11
-0.01343007816552749
 21
-0.008999999999999999
  0
LINE
  5
DF
100
AcDbEntity
  8
CL'C
  6
ByLayer
 62
  256
370
   -1
100
AcDbLine
 10
-0.02224859546128698
 20
-0.008999999999999999
 11
0.0927024810886958
 21
0.0375
  0
ARC
  5
E0
100
AcDbEntity
  8
R2'C
  6
ByLayer
 62
  256
370
   -1
100
AcDbCircle
 10
8.673617379884035e-018
 20
9.707292387838207e-018
 40
0.0388
100
AcDbArc
 50
18.36698233106169
 51
24.76030863038168
  0
ARC
  5
E1
100
AcDbEntity
  8
R2'C
  6
ByLayer
 62
  256
370
   -1
100
AcDbCircle
 10
0.03596856266241398
 20
0.01455
 40
0.0388
100
AcDbArc
 50
190.4515128696222
 51
255.559408599088
  0
ARC
  5
E2
100
AcDbEntity
  8
R2'C
  6
ByLayer
 62
  256
370
   -1
100
AcDbCircle
 10
0.01203143733758602
 20
0.01455
 40
0.0388
100
AcDbArc
 50
284.440591400912
 51
349.5484871303777
  0
DIMENSION
  5
E3
100
AcDbEntity
  8
R2'C
  6
ByLayer
 62
  256
370
   -1
100
AcDbDimension
  2
*D6
 10
0.03596856266241398
 20
0.01455
 30
0
 11
0.02855742930429455
 21
-0.003441250716616938
 31
0
 70
   36
 71
    5
 72
    0
  3
Standard
 53
0
210
0
220
0
230
1
100
AcDbRadialDimension
 15
0.02400000000000001
 25
-0.02235790576280196
 35
0
 40
0
  0
ARC
  5
E4
100
AcDbEntity
  8
R1'D
  6
ByLayer
 62
  256
370
   -1
100
AcDbCircle
 10
8.673617379884035e-018
 20
1.734723475976807e-018
 40
0.02
100
AcDbArc
 50
190.4653384286007
 51
200.6005640758248
  0
ARC
  5
E5
100
AcDbEntity
  8
R1'D
  6
ByLayer
 62
  256
370
   -1
100
AcDbCircle
 10
-0.01936491673103707
 20
-0.005
 40
0.02
100
AcDbArc
 50
1.409219761578616
 51
111.6673813024434
  0
LINE
  5
E6
100
AcDbEntity
  8
CL'D
  6
ByLayer
 62
  256
370
   -1
100
AcDbLine
 10
-0.02904737509655562
 20
-0.007500000000000001
 11
0.09682458365518544
 21
0.02500000000000002
  0
LINE
  5
E7
100
AcDbEntity
  8
R1'D
  6
ByLayer
 62
  256
370
   -1
100
AcDbLine
 10
-0.02770297073548332
 20
-0.005
 11
-0.01013210503751473
 21
-0.005
  0
DIMENSION
  5
E8
100
AcDbEntity
  8
R1'D
  6
ByLayer
 62
  256
370
   -1
100
AcDbDimension
  2
*D7
 10
-0.01936491673103707
 20
-0.005
 30
0
 11
-0.02086491673103708
 21
0.005
 31
0
 70
   36
 71
    5
 72
    0
  3
Standard
 53
0
210
0
220
0
230
1
100
AcDbRadialDimension
 15
-0.01936491673103707
 25
0.015
 35
0
 40
0
  0
ARC
  5
E9
100
AcDbEntity
  8
R2'D
  6
ByLayer
 62
  256
370
   -1
100
AcDbCircle
 10
9.250159308283275e-018
 20
6.348586888637014e-018
 40
0.0324
100
AcDbArc
 50
11.74998357177667
 51
16.8518001521377
  0
ARC
  5
EA
100
AcDbEntity
  8
R2'D
  6
ByLayer
 62
  256
370
   -1
100
AcDbCircle
 10
0.03137116510428008
 20
0.00810000000000001
 40
0.0324
100
AcDbArc
 50
182.2932368910342
 51
263.7821167481499
  0
ARC
  5
EB
100
AcDbEntity
  8
R2'D
  6
ByLayer
 62
  256
370
   -1
100
AcDbCircle
 10
0.01662883489571992
 20
0.00810000000000001
 40
0.0324
100
AcDbArc
 50
276.2178832518501
 51
357.7067631089658
  0
DIMENSION
  5
EC
100
AcDbEntity
  8
R2'D
  6
ByLayer
 62
  256
370
   -1
100
AcDbDimension
  2
*D8
 10
0.03137116510428008
 20
0.00810000000000001
 30
0
 11
0.026224917217231
 21
-0.007333927973300979
 31
0
 70
   36
 71
    5
 72
    0
  3
Standard
 53
0
210
0
220
0
230
1
100
AcDbRadialDimension
 15
0.02399999999999999
 25
-0.02345037123403531
 35
0
 40
0
  0
LINE
  5
ED
100
AcDbEntity
  8
CL'E
  6
ByLayer
 62
  256
370
   -1
100
AcDbLine
 10
-0.0297077602724972
 20
-0.008857142857142859
 11
0.09583148474999099
 21
0.02857142857142858
  0
ARC
  5
EE
100
AcDbEntity
  8
R2'E
  6
ByLayer
 62
  256
370
   -1
100
AcDbCircle
 10
8.673617379884035e-018
 20
5.672797226782427e-018
 40
0.034
100
AcDbArc
 50
12.40741852740074
 51
18.97040780848654
  0
ARC
  5
EF
100
AcDbEntity
  8
R2'E
  6
ByLayer
 62
  256
370
   -1
100
AcDbCircle
 10
0.03258270481499694
 20
0.00971428571428572
 40
0.034
100
AcDbArc
 50
184.9396449257266
 51
263.8601940825635
  0
ARC
  5
F0
100
AcDbEntity
  8
R2'E
  6
ByLayer
 62
  256
370
   -1
100
AcDbCircle
 10
0.01541729518500306
 20
0.00971428571428572
 40
0.034
100
AcDbArc
 50
276.1398059174365
 51
355.0603550742734
  0
LINE
  5
F1
100
AcDbEntity
  8
R1'E
  6
ByLayer
 62
  256
370
   -1
100
AcDbLine
 10
-0.0256995
 20
-0.006
 11
-0.011772
 21
-0.006
  0
ARC
  5
F2
100
AcDbEntity
  8
R1'E
  6
ByLayer
 62
  256
370
   -1
100
AcDbCircle
 10
8.673619999999999e-018
 20
1.73472e-018
 40
0.021
100
AcDbArc
 50
190.62
 51
203.443
  0
ARC
  5
F3
100
AcDbEntity
  8
R1'E
  6
ByLayer
 62
  256
370
   -1
100
AcDbCircle
 10
-0.0201246
 20
-0.006
 40
0.021
100
AcDbArc
 50
337.209
 51
113.725
  0
DIMENSION
  5
F4
100
AcDbEntity
  8
R1'E
  6
ByLayer
 62
  256
370
   -1
100
AcDbDimension
  2
*D9
 10
-0.0201246
 20
-0.006
 30
0
 11
-0.0216246
 21
0.004500000000000001
 31
0
 70
   36
 71
    5
 72
    0
  3
Standard
 53
0
210
0
220
0
230
1
100
AcDbRadialDimension
 15
-0.0201246
 25
0.015
 35
0
 40
0
  0
DIMENSION
  5
F5
100
AcDbEntity
  8
R2'E
  6
ByLayer
 62
  256
370
   -1
100
AcDbDimension
  2
*D10
 10
0.03258270481499694
 20
0.00971428571428572
 30
0
 11
0.02683993064580945
 21
-0.006356512176351601
 31
0
 70
   36
 71
    5
 72
    0
  3
Standard
 53
0
210
0
220
0
230
1
100
AcDbRadialDimension
 15
0.02399999999999998
 25
-0.02318460755066512
 35
0
 40
0
  0
DIMENSION
  5
F6
100
AcDbEntity
  8
R1
  6
ByLayer
 62
  256
370
   -1
100
AcDbDimension
  2
*D11
 10
-0.02291287847477919
 20
-0.01
 30
0
 11
-0.02441287847477919
 21
0.0025
 31
0
 70
   36
 71
    5
 72
    0
  3
Standard
 53
0
210
0
220
0
230
1
100
AcDbRadialDimension
 15
-0.02291287847477919
 25
0.015
 35
0
 40
0
  0
DIMENSION
  5
F7
100
AcDbEntity
  8
R2
  6
ByLayer
 62
  256
370
   -1
100
AcDbDimension
  2
*D12
 10
0.0676634241728632
 20
0.02953073933829051
 30
0
 11
0.04462217773668841
 21
0.0006525148978374729
 31
0
 70
   36
 71
    5
 72
    0
  3
Standard
 53
0
210
0
220
0
230
1
100
AcDbRadialDimension
 15
0.02399999999999997
 25
-0.03
 35
0
 40
0
  0
ARC
  5
F8
100
AcDbEntity
  8
R1'F
  6
ByLayer
 62
  256
370
   -1
100
AcDbCircle
 10
8.673617379884035e-018
 20
1.734723475976807e-018
 40
0.0188
100
AcDbArc
 50
187.236922025968
 51
195.1990563143808
  0
ARC
  5
F9
100
AcDbEntity
  8
R1'F
  6
ByLayer
 62
  256
370
   -1
100
AcDbCircle
 10
-0.01841195263952196
 20
-0.0038
 40
0.0188
100
AcDbArc
 50
2.695644146115276
 51
106.28128273795
  0
LINE
  5
FA
100
AcDbEntity
  8
R1'F
  6
ByLayer
 62
  256
370
   -1
100
AcDbLine
 10
-0.02053629092913873
 20
-0.0038
 11
-0.01517899764327646
 21
-0.0038
  0
DIMENSION
  5
FB
100
AcDbEntity
  8
R1'F
  6
ByLayer
 62
  256
370
   -1
100
AcDbDimension
  2
*D13
 10
-0.01841195263952196
 20
-0.0038
 30
0
 11
-0.01991195263952196
 21
0.005600000000000001
 31
0
 70
   36
 71
    5
 72
    0
  3
Standard
 53
0
210
0
220
0
230
1
100
AcDbRadialDimension
 15
-0.01841195263952196
 25
0.015
 35
0
 40
0
  0
LINE
  5
FC
100
AcDbEntity
  8
CL'F
  6
ByLayer
 62
  256
370
   -1
100
AcDbLine
 10
-0.02820554446905492
 20
-0.005821276595744686
 11
0.09793591829532963
 21
0.02021276595744688
  0
ARC
  5
FD
100
AcDbEntity
  8
R2'F
  6
ByLayer
 62
  256
370
   -1
100
AcDbCircle
 10
1.023451399131359e-017
 20
1.734723475976807e-018
 40
0.0304
100
AcDbArc
 50
8.316559369850513
 51
15.02710941402863
  0
ARC
  5
FE
100
AcDbEntity
  8
R2'F
  6
ByLayer
 62
  256
370
   -1
100
AcDbCircle
 10
0.02977251916178021
 20
0.006144680851063855
 40
0.0304
100
AcDbArc
 50
180.1736196087603
 51
269.5091136530889
  0
ARC
  5
FF
100
AcDbEntity
  8
R2'F
  6
ByLayer
 62
  256
370
   -1
100
AcDbCircle
 10
0.01822748083821979
 20
0.006144680851063857
 40
0.0304
100
AcDbArc
 50
270.4908863469111
 51
359.8263803912397
  0
DIMENSION
  5
100
100
AcDbEntity
  8
R2'F
  6
ByLayer
 62
  256
370
   -1
100
AcDbDimension
  2
*D14
 10
0.02977251916178021
 20
0.006144680851063855
 30
0
 11
0.02541355021747985
 21
-0.00849394578337918
 31
0
 70
   36
 71
    5
 72
    0
  3
Standard
 53
0
210
0
220
0
230
1
100
AcDbRadialDimension
 15
0.02399999999999998
 25
-0.02370222891405053
 35
0
 40
0
  0
ARC
  5
101
100
AcDbEntity
  8
R2'A
  6
ByLayer
 62
  256
370
   -1
100
AcDbCircle
 10
8.673617379884034e-018
 20
-4.251492860919863e-017
 40
0.0368
100
AcDbArc
 50
8.888942478424593
 51
14.00295132785399
  0
ENDSEC
  0
SECTION
  2
OBJECTS
  0
DICTIONARY
  5
C
330
0
100
AcDbDictionary
281
    1
  3
ACAD_GROUP
350
D
  0
DICTIONARY
  5
D
330
C
100
AcDbDictionary
281
    1
  0
ENDSEC
  0
EOF
